solid задвижка
facet normal 0.0 0.0 -1.0
  outer loop
    vertex 7.9775491243742245 52.056307057870335 0.0
    vertex 6.728365671602835 50.500119777744594 0.0
    vertex 6.728365671602835 51.60164146392367 0.0
  endloop
endfacet
facet normal 0.0 0.0 -1.0
  outer loop
    vertex 6.728365671602835 50.500119777744594 0.0
    vertex 7.9775491243742245 52.056307057870335 0.0
    vertex 7.9775491243742245 50.04545418379792 0.0
  endloop
endfacet
facet normal 0.0 0.0 -1.0
  outer loop
    vertex 7.9775491243742245 50.04545418379792 0.0
    vertex 7.9775491243742245 52.056307057870335 0.0
    vertex 12.013382457707559 52.056307057870335 0.0
  endloop
endfacet
facet normal 0.0 0.0 -1.0
  outer loop
    vertex 7.9775491243742245 50.04545418379792 0.0
    vertex 12.013382457707559 52.056307057870335 0.0
    vertex 7.9775491243742245 49.43831317987884 0.0
  endloop
endfacet
facet normal 0.0 0.0 -1.0
  outer loop
    vertex 7.9775491243742245 49.43831317987884 0.0
    vertex 12.013382457707559 52.056307057870335 0.0
    vertex 7.9775491243742245 47.427460305806434 0.0
  endloop
endfacet
facet normal 0.0 0.0 -1.0
  outer loop
    vertex 7.9775491243742245 47.427460305806434 0.0
    vertex 12.013382457707559 52.056307057870335 0.0
    vertex 7.9775491243742245 46.820319301887345 0.0
  endloop
endfacet
facet normal 0.0 0.0 -1.0
  outer loop
    vertex 7.9775491243742245 46.820319301887345 0.0
    vertex 12.013382457707559 52.056307057870335 0.0
    vertex 7.9775491243742245 44.80946642781494 0.0
  endloop
endfacet
facet normal 0.0 0.0 -1.0
  outer loop
    vertex 7.9775491243742245 44.80946642781494 0.0
    vertex 12.013382457707559 52.056307057870335 0.0
    vertex 7.9775491243742245 44.20232542389585 0.0
  endloop
endfacet
facet normal 0.0 0.0 -1.0
  outer loop
    vertex 7.9775491243742245 44.20232542389585 0.0
    vertex 12.013382457707559 52.056307057870335 0.0
    vertex 7.9775491243742245 42.191472549823445 0.0
  endloop
endfacet
facet normal 0.0 0.0 -1.0
  outer loop
    vertex 7.9775491243742245 42.191472549823445 0.0
    vertex 12.013382457707559 52.056307057870335 0.0
    vertex 7.9775491243742245 41.58433154590436 0.0
  endloop
endfacet
facet normal 0.0 0.0 -1.0
  outer loop
    vertex 7.9775491243742245 41.58433154590436 0.0
    vertex 12.013382457707559 52.056307057870335 0.0
    vertex 7.9775491243742245 39.57347867183196 0.0
  endloop
endfacet
facet normal 0.0 0.0 -1.0
  outer loop
    vertex 7.9775491243742245 39.57347867183196 0.0
    vertex 12.013382457707559 52.056307057870335 0.0
    vertex 7.9775491243742245 38.96633766791287 0.0
  endloop
endfacet
facet normal 0.0 0.0 -1.0
  outer loop
    vertex 7.9775491243742245 38.96633766791287 0.0
    vertex 12.013382457707559 52.056307057870335 0.0
    vertex 7.9775491243742245 36.955484793840455 0.0
  endloop
endfacet
facet normal 0.0 0.0 -1.0
  outer loop
    vertex 7.9775491243742245 36.955484793840455 0.0
    vertex 12.013382457707559 52.056307057870335 0.0
    vertex 7.9775491243742245 36.348343789921365 0.0
  endloop
endfacet
facet normal 0.0 0.0 -1.0
  outer loop
    vertex 7.9775491243742245 36.348343789921365 0.0
    vertex 12.013382457707559 52.056307057870335 0.0
    vertex 7.9775491243742245 34.33749091584897 0.0
  endloop
endfacet
facet normal 0.0 0.0 -1.0
  outer loop
    vertex 7.9775491243742245 34.33749091584897 0.0
    vertex 12.013382457707559 52.056307057870335 0.0
    vertex 7.9775491243742245 33.73034991192988 0.0
  endloop
endfacet
facet normal 0.0 0.0 -1.0
  outer loop
    vertex 7.9775491243742245 33.73034991192988 0.0
    vertex 12.013382457707559 52.056307057870335 0.0
    vertex 7.9775491243742245 31.71949703785747 0.0
  endloop
endfacet
facet normal 0.0 0.0 -1.0
  outer loop
    vertex 7.9775491243742245 31.71949703785747 0.0
    vertex 12.013382457707559 52.056307057870335 0.0
    vertex 7.9775491243742245 31.112356033938383 0.0
  endloop
endfacet
facet normal 0.0 0.0 -1.0
  outer loop
    vertex 7.9775491243742245 31.112356033938383 0.0
    vertex 12.013382457707559 52.056307057870335 0.0
    vertex 7.9775491243742245 29.101503159865977 0.0
  endloop
endfacet
facet normal 0.0 0.0 -1.0
  outer loop
    vertex 7.9775491243742245 29.101503159865977 0.0
    vertex 12.013382457707559 52.056307057870335 0.0
    vertex 7.9775491243742245 28.49436215594689 0.0
  endloop
endfacet
facet normal 0.0 0.0 -1.0
  outer loop
    vertex 7.9775491243742245 28.49436215594689 0.0
    vertex 12.013382457707559 52.056307057870335 0.0
    vertex 7.9775491243742245 26.483509281874483 0.0
  endloop
endfacet
facet normal 0.0 0.0 -1.0
  outer loop
    vertex 7.9775491243742245 26.483509281874483 0.0
    vertex 12.013382457707559 52.056307057870335 0.0
    vertex 7.9775491243742245 25.876368277955397 0.0
  endloop
endfacet
facet normal 0.0 0.0 -1.0
  outer loop
    vertex 7.9775491243742245 25.876368277955397 0.0
    vertex 12.013382457707559 52.056307057870335 0.0
    vertex 7.9775491243742245 23.865515403882988 0.0
  endloop
endfacet
facet normal 0.0 0.0 -1.0
  outer loop
    vertex 7.9775491243742245 23.865515403882988 0.0
    vertex 12.013382457707559 52.056307057870335 0.0
    vertex 7.9775491243742245 23.258374399963902 0.0
  endloop
endfacet
facet normal 0.0 0.0 -1.0
  outer loop
    vertex 7.9775491243742245 23.258374399963902 0.0
    vertex 12.013382457707559 52.056307057870335 0.0
    vertex 7.9775491243742245 21.247521525891493 0.0
  endloop
endfacet
facet normal 0.0 0.0 -1.0
  outer loop
    vertex 7.9775491243742245 21.247521525891493 0.0
    vertex 12.013382457707559 52.056307057870335 0.0
    vertex 12.013382457707559 21.247521525891493 0.0
  endloop
endfacet
facet normal 0.0 0.0 -1.0
  outer loop
    vertex 7.9775491243742245 23.258374399963902 0.0
    vertex 6.728365671602835 21.70218711983816 0.0
    vertex 6.728365671602835 22.803708806017234 0.0
  endloop
endfacet
facet normal 0.0 0.0 -1.0
  outer loop
    vertex 6.728365671602835 21.70218711983816 0.0
    vertex 7.9775491243742245 23.258374399963902 0.0
    vertex 7.9775491243742245 21.247521525891493 0.0
  endloop
endfacet
facet normal 0.0 0.0 -1.0
  outer loop
    vertex 7.9775491243742245 25.876368277955397 0.0
    vertex 6.728365671602835 24.320180997829656 0.0
    vertex 6.728365671602835 25.42170268400873 0.0
  endloop
endfacet
facet normal 0.0 0.0 -1.0
  outer loop
    vertex 6.728365671602835 24.320180997829656 0.0
    vertex 7.9775491243742245 25.876368277955397 0.0
    vertex 7.9775491243742245 23.865515403882988 0.0
  endloop
endfacet
facet normal 0.0 0.0 -1.0
  outer loop
    vertex 7.9775491243742245 28.49436215594689 0.0
    vertex 6.728365671602835 26.93817487582115 0.0
    vertex 6.728365671602835 28.039696562000223 0.0
  endloop
endfacet
facet normal 0.0 0.0 -1.0
  outer loop
    vertex 6.728365671602835 26.93817487582115 0.0
    vertex 7.9775491243742245 28.49436215594689 0.0
    vertex 7.9775491243742245 26.483509281874483 0.0
  endloop
endfacet
facet normal 0.0 0.0 -1.0
  outer loop
    vertex 7.9775491243742245 31.112356033938383 0.0
    vertex 6.728365671602835 29.556168753812642 0.0
    vertex 6.728365671602835 30.657690439991715 0.0
  endloop
endfacet
facet normal 0.0 0.0 -1.0
  outer loop
    vertex 6.728365671602835 29.556168753812642 0.0
    vertex 7.9775491243742245 31.112356033938383 0.0
    vertex 7.9775491243742245 29.101503159865977 0.0
  endloop
endfacet
facet normal 0.0 0.0 -1.0
  outer loop
    vertex 7.9775491243742245 33.73034991192988 0.0
    vertex 6.728365671602835 32.17416263180414 0.0
    vertex 6.728365671602835 33.275684317983206 0.0
  endloop
endfacet
facet normal 0.0 0.0 -1.0
  outer loop
    vertex 6.728365671602835 32.17416263180414 0.0
    vertex 7.9775491243742245 33.73034991192988 0.0
    vertex 7.9775491243742245 31.71949703785747 0.0
  endloop
endfacet
facet normal 0.0 0.0 -1.0
  outer loop
    vertex 7.9775491243742245 36.348343789921365 0.0
    vertex 6.728365671602835 34.79215650979563 0.0
    vertex 6.728365671602835 35.8936781959747 0.0
  endloop
endfacet
facet normal 0.0 0.0 -1.0
  outer loop
    vertex 6.728365671602835 34.79215650979563 0.0
    vertex 7.9775491243742245 36.348343789921365 0.0
    vertex 7.9775491243742245 34.33749091584897 0.0
  endloop
endfacet
facet normal 0.0 0.0 -1.0
  outer loop
    vertex 7.9775491243742245 38.96633766791287 0.0
    vertex 6.728365671602835 37.41015038778712 0.0
    vertex 6.728365671602835 38.5116720739662 0.0
  endloop
endfacet
facet normal 0.0 0.0 -1.0
  outer loop
    vertex 6.728365671602835 37.41015038778712 0.0
    vertex 7.9775491243742245 38.96633766791287 0.0
    vertex 7.9775491243742245 36.955484793840455 0.0
  endloop
endfacet
facet normal 0.0 0.0 -1.0
  outer loop
    vertex 7.9775491243742245 41.58433154590436 0.0
    vertex 6.728365671602835 40.02814426577862 0.0
    vertex 6.728365671602835 41.12966595195769 0.0
  endloop
endfacet
facet normal 0.0 0.0 -1.0
  outer loop
    vertex 6.728365671602835 40.02814426577862 0.0
    vertex 7.9775491243742245 41.58433154590436 0.0
    vertex 7.9775491243742245 39.57347867183196 0.0
  endloop
endfacet
facet normal 0.0 0.0 -1.0
  outer loop
    vertex 7.9775491243742245 44.20232542389585 0.0
    vertex 6.728365671602835 42.646138143770116 0.0
    vertex 6.728365671602835 43.747659829949185 0.0
  endloop
endfacet
facet normal 0.0 0.0 -1.0
  outer loop
    vertex 6.728365671602835 42.646138143770116 0.0
    vertex 7.9775491243742245 44.20232542389585 0.0
    vertex 7.9775491243742245 42.191472549823445 0.0
  endloop
endfacet
facet normal 0.0 0.0 -1.0
  outer loop
    vertex 7.9775491243742245 46.820319301887345 0.0
    vertex 6.728365671602835 45.264132021761604 0.0
    vertex 6.728365671602835 46.36565370794068 0.0
  endloop
endfacet
facet normal 0.0 0.0 -1.0
  outer loop
    vertex 6.728365671602835 45.264132021761604 0.0
    vertex 7.9775491243742245 46.820319301887345 0.0
    vertex 7.9775491243742245 44.80946642781494 0.0
  endloop
endfacet
facet normal 0.0 0.0 -1.0
  outer loop
    vertex 7.9775491243742245 49.43831317987884 0.0
    vertex 6.728365671602835 47.882125899753106 0.0
    vertex 6.728365671602835 48.983647585932175 0.0
  endloop
endfacet
facet normal 0.0 0.0 -1.0
  outer loop
    vertex 6.728365671602835 47.882125899753106 0.0
    vertex 7.9775491243742245 49.43831317987884 0.0
    vertex 7.9775491243742245 47.427460305806434 0.0
  endloop
endfacet
facet normal 0.0 0.0 1.0
  outer loop
    vertex 7.9775491243742245 21.247521525891493 3.5
    vertex 6.728365671602835 22.803708806017234 3.5
    vertex 6.728365671602835 21.70218711983816 3.5
  endloop
endfacet
facet normal 0.0 0.0 1.0
  outer loop
    vertex 6.728365671602835 22.803708806017234 3.5
    vertex 7.9775491243742245 21.247521525891493 3.5
    vertex 7.9775491243742245 23.258374399963902 3.5
  endloop
endfacet
facet normal 0.0 0.0 1.0
  outer loop
    vertex 7.9775491243742245 23.258374399963902 3.5
    vertex 7.9775491243742245 21.247521525891493 3.5
    vertex 12.013382457707559 21.247521525891493 3.5
  endloop
endfacet
facet normal 0.0 0.0 1.0
  outer loop
    vertex 7.9775491243742245 23.258374399963902 3.5
    vertex 12.013382457707559 21.247521525891493 3.5
    vertex 7.9775491243742245 23.865515403882988 3.5
  endloop
endfacet
facet normal 0.0 0.0 1.0
  outer loop
    vertex 7.9775491243742245 23.865515403882988 3.5
    vertex 12.013382457707559 21.247521525891493 3.5
    vertex 7.9775491243742245 25.876368277955397 3.5
  endloop
endfacet
facet normal 0.0 0.0 1.0
  outer loop
    vertex 7.9775491243742245 25.876368277955397 3.5
    vertex 12.013382457707559 21.247521525891493 3.5
    vertex 7.9775491243742245 26.483509281874483 3.5
  endloop
endfacet
facet normal 0.0 0.0 1.0
  outer loop
    vertex 7.9775491243742245 26.483509281874483 3.5
    vertex 12.013382457707559 21.247521525891493 3.5
    vertex 7.9775491243742245 28.49436215594689 3.5
  endloop
endfacet
facet normal 0.0 0.0 1.0
  outer loop
    vertex 7.9775491243742245 28.49436215594689 3.5
    vertex 12.013382457707559 21.247521525891493 3.5
    vertex 7.9775491243742245 29.101503159865977 3.5
  endloop
endfacet
facet normal 0.0 0.0 1.0
  outer loop
    vertex 7.9775491243742245 29.101503159865977 3.5
    vertex 12.013382457707559 21.247521525891493 3.5
    vertex 7.9775491243742245 31.112356033938383 3.5
  endloop
endfacet
facet normal 0.0 0.0 1.0
  outer loop
    vertex 7.9775491243742245 31.112356033938383 3.5
    vertex 12.013382457707559 21.247521525891493 3.5
    vertex 7.9775491243742245 31.71949703785747 3.5
  endloop
endfacet
facet normal 0.0 0.0 1.0
  outer loop
    vertex 7.9775491243742245 31.71949703785747 3.5
    vertex 12.013382457707559 21.247521525891493 3.5
    vertex 7.9775491243742245 33.73034991192988 3.5
  endloop
endfacet
facet normal 0.0 0.0 1.0
  outer loop
    vertex 7.9775491243742245 33.73034991192988 3.5
    vertex 12.013382457707559 21.247521525891493 3.5
    vertex 7.9775491243742245 34.33749091584897 3.5
  endloop
endfacet
facet normal 0.0 0.0 1.0
  outer loop
    vertex 7.9775491243742245 34.33749091584897 3.5
    vertex 12.013382457707559 21.247521525891493 3.5
    vertex 7.9775491243742245 36.348343789921365 3.5
  endloop
endfacet
facet normal 0.0 0.0 1.0
  outer loop
    vertex 7.9775491243742245 36.348343789921365 3.5
    vertex 12.013382457707559 21.247521525891493 3.5
    vertex 7.9775491243742245 36.955484793840455 3.5
  endloop
endfacet
facet normal 0.0 0.0 1.0
  outer loop
    vertex 7.9775491243742245 36.955484793840455 3.5
    vertex 12.013382457707559 21.247521525891493 3.5
    vertex 7.9775491243742245 38.96633766791287 3.5
  endloop
endfacet
facet normal 0.0 0.0 1.0
  outer loop
    vertex 7.9775491243742245 38.96633766791287 3.5
    vertex 12.013382457707559 21.247521525891493 3.5
    vertex 7.9775491243742245 39.57347867183196 3.5
  endloop
endfacet
facet normal 0.0 0.0 1.0
  outer loop
    vertex 7.9775491243742245 39.57347867183196 3.5
    vertex 12.013382457707559 21.247521525891493 3.5
    vertex 7.9775491243742245 41.58433154590436 3.5
  endloop
endfacet
facet normal 0.0 0.0 1.0
  outer loop
    vertex 7.9775491243742245 41.58433154590436 3.5
    vertex 12.013382457707559 21.247521525891493 3.5
    vertex 7.9775491243742245 42.191472549823445 3.5
  endloop
endfacet
facet normal 0.0 0.0 1.0
  outer loop
    vertex 7.9775491243742245 42.191472549823445 3.5
    vertex 12.013382457707559 21.247521525891493 3.5
    vertex 7.9775491243742245 44.20232542389585 3.5
  endloop
endfacet
facet normal 0.0 0.0 1.0
  outer loop
    vertex 7.9775491243742245 44.20232542389585 3.5
    vertex 12.013382457707559 21.247521525891493 3.5
    vertex 7.9775491243742245 44.80946642781494 3.5
  endloop
endfacet
facet normal 0.0 0.0 1.0
  outer loop
    vertex 7.9775491243742245 44.80946642781494 3.5
    vertex 12.013382457707559 21.247521525891493 3.5
    vertex 7.9775491243742245 46.820319301887345 3.5
  endloop
endfacet
facet normal 0.0 0.0 1.0
  outer loop
    vertex 7.9775491243742245 46.820319301887345 3.5
    vertex 12.013382457707559 21.247521525891493 3.5
    vertex 7.9775491243742245 47.427460305806434 3.5
  endloop
endfacet
facet normal 0.0 0.0 1.0
  outer loop
    vertex 7.9775491243742245 47.427460305806434 3.5
    vertex 12.013382457707559 21.247521525891493 3.5
    vertex 7.9775491243742245 49.43831317987884 3.5
  endloop
endfacet
facet normal 0.0 0.0 1.0
  outer loop
    vertex 7.9775491243742245 49.43831317987884 3.5
    vertex 12.013382457707559 21.247521525891493 3.5
    vertex 7.9775491243742245 50.04545418379792 3.5
  endloop
endfacet
facet normal 0.0 0.0 1.0
  outer loop
    vertex 7.9775491243742245 50.04545418379792 3.5
    vertex 12.013382457707559 21.247521525891493 3.5
    vertex 7.9775491243742245 52.056307057870335 3.5
  endloop
endfacet
facet normal 0.0 0.0 1.0
  outer loop
    vertex 7.9775491243742245 52.056307057870335 3.5
    vertex 12.013382457707559 21.247521525891493 3.5
    vertex 12.013382457707559 52.056307057870335 3.5
  endloop
endfacet
facet normal 0.0 0.0 1.0
  outer loop
    vertex 7.9775491243742245 50.04545418379792 3.5
    vertex 6.728365671602835 51.60164146392367 3.5
    vertex 6.728365671602835 50.500119777744594 3.5
  endloop
endfacet
facet normal 0.0 0.0 1.0
  outer loop
    vertex 6.728365671602835 51.60164146392367 3.5
    vertex 7.9775491243742245 50.04545418379792 3.5
    vertex 7.9775491243742245 52.056307057870335 3.5
  endloop
endfacet
facet normal 0.0 0.0 1.0
  outer loop
    vertex 7.9775491243742245 47.427460305806434 3.5
    vertex 6.728365671602835 48.983647585932175 3.5
    vertex 6.728365671602835 47.882125899753106 3.5
  endloop
endfacet
facet normal 0.0 0.0 1.0
  outer loop
    vertex 6.728365671602835 48.983647585932175 3.5
    vertex 7.9775491243742245 47.427460305806434 3.5
    vertex 7.9775491243742245 49.43831317987884 3.5
  endloop
endfacet
facet normal 0.0 0.0 1.0
  outer loop
    vertex 7.9775491243742245 44.80946642781494 3.5
    vertex 6.728365671602835 46.36565370794068 3.5
    vertex 6.728365671602835 45.264132021761604 3.5
  endloop
endfacet
facet normal 0.0 0.0 1.0
  outer loop
    vertex 6.728365671602835 46.36565370794068 3.5
    vertex 7.9775491243742245 44.80946642781494 3.5
    vertex 7.9775491243742245 46.820319301887345 3.5
  endloop
endfacet
facet normal 0.0 0.0 1.0
  outer loop
    vertex 7.9775491243742245 42.191472549823445 3.5
    vertex 6.728365671602835 43.747659829949185 3.5
    vertex 6.728365671602835 42.646138143770116 3.5
  endloop
endfacet
facet normal 0.0 0.0 1.0
  outer loop
    vertex 6.728365671602835 43.747659829949185 3.5
    vertex 7.9775491243742245 42.191472549823445 3.5
    vertex 7.9775491243742245 44.20232542389585 3.5
  endloop
endfacet
facet normal 0.0 0.0 1.0
  outer loop
    vertex 7.9775491243742245 39.57347867183196 3.5
    vertex 6.728365671602835 41.12966595195769 3.5
    vertex 6.728365671602835 40.02814426577862 3.5
  endloop
endfacet
facet normal 0.0 0.0 1.0
  outer loop
    vertex 6.728365671602835 41.12966595195769 3.5
    vertex 7.9775491243742245 39.57347867183196 3.5
    vertex 7.9775491243742245 41.58433154590436 3.5
  endloop
endfacet
facet normal 0.0 0.0 1.0
  outer loop
    vertex 7.9775491243742245 36.955484793840455 3.5
    vertex 6.728365671602835 38.5116720739662 3.5
    vertex 6.728365671602835 37.41015038778712 3.5
  endloop
endfacet
facet normal 0.0 0.0 1.0
  outer loop
    vertex 6.728365671602835 38.5116720739662 3.5
    vertex 7.9775491243742245 36.955484793840455 3.5
    vertex 7.9775491243742245 38.96633766791287 3.5
  endloop
endfacet
facet normal 0.0 0.0 1.0
  outer loop
    vertex 7.9775491243742245 34.33749091584897 3.5
    vertex 6.728365671602835 35.8936781959747 3.5
    vertex 6.728365671602835 34.79215650979563 3.5
  endloop
endfacet
facet normal 0.0 0.0 1.0
  outer loop
    vertex 6.728365671602835 35.8936781959747 3.5
    vertex 7.9775491243742245 34.33749091584897 3.5
    vertex 7.9775491243742245 36.348343789921365 3.5
  endloop
endfacet
facet normal 0.0 0.0 1.0
  outer loop
    vertex 7.9775491243742245 31.71949703785747 3.5
    vertex 6.728365671602835 33.275684317983206 3.5
    vertex 6.728365671602835 32.17416263180414 3.5
  endloop
endfacet
facet normal 0.0 0.0 1.0
  outer loop
    vertex 6.728365671602835 33.275684317983206 3.5
    vertex 7.9775491243742245 31.71949703785747 3.5
    vertex 7.9775491243742245 33.73034991192988 3.5
  endloop
endfacet
facet normal 0.0 0.0 1.0
  outer loop
    vertex 7.9775491243742245 29.101503159865977 3.5
    vertex 6.728365671602835 30.657690439991715 3.5
    vertex 6.728365671602835 29.556168753812642 3.5
  endloop
endfacet
facet normal 0.0 0.0 1.0
  outer loop
    vertex 6.728365671602835 30.657690439991715 3.5
    vertex 7.9775491243742245 29.101503159865977 3.5
    vertex 7.9775491243742245 31.112356033938383 3.5
  endloop
endfacet
facet normal 0.0 0.0 1.0
  outer loop
    vertex 7.9775491243742245 26.483509281874483 3.5
    vertex 6.728365671602835 28.039696562000223 3.5
    vertex 6.728365671602835 26.93817487582115 3.5
  endloop
endfacet
facet normal 0.0 0.0 1.0
  outer loop
    vertex 6.728365671602835 28.039696562000223 3.5
    vertex 7.9775491243742245 26.483509281874483 3.5
    vertex 7.9775491243742245 28.49436215594689 3.5
  endloop
endfacet
facet normal 0.0 0.0 1.0
  outer loop
    vertex 7.9775491243742245 23.865515403882988 3.5
    vertex 6.728365671602835 25.42170268400873 3.5
    vertex 6.728365671602835 24.320180997829656 3.5
  endloop
endfacet
facet normal 0.0 0.0 1.0
  outer loop
    vertex 6.728365671602835 25.42170268400873 3.5
    vertex 7.9775491243742245 23.865515403882988 3.5
    vertex 7.9775491243742245 25.876368277955397 3.5
  endloop
endfacet
facet normal -0.3420201433256688 -0.9396926207859084 0.0
  outer loop
    vertex 7.9775491243742245 21.247521525891493 3.5
    vertex 6.728365671602835 21.70218711983816 0.0
    vertex 7.9775491243742245 21.247521525891493 0.0
  endloop
endfacet
facet normal -0.3420201433256688 -0.9396926207859084 0.0
  outer loop
    vertex 6.728365671602835 21.70218711983816 0.0
    vertex 7.9775491243742245 21.247521525891493 3.5
    vertex 6.728365671602835 21.70218711983816 3.5
  endloop
endfacet
facet normal -1.0 0.0 0.0
  outer loop
    vertex 6.728365671602835 22.803708806017234 3.5
    vertex 6.728365671602835 21.70218711983816 0.0
    vertex 6.728365671602835 21.70218711983816 3.5
  endloop
endfacet
facet normal -1.0 0.0 0.0
  outer loop
    vertex 6.728365671602835 21.70218711983816 0.0
    vertex 6.728365671602835 22.803708806017234 3.5
    vertex 6.728365671602835 22.803708806017234 0.0
  endloop
endfacet
facet normal -0.3420201433256688 0.9396926207859084 0.0
  outer loop
    vertex 6.728365671602835 22.803708806017234 3.5
    vertex 7.9775491243742245 23.258374399963902 0.0
    vertex 6.728365671602835 22.803708806017234 0.0
  endloop
endfacet
facet normal -0.3420201433256688 0.9396926207859084 0.0
  outer loop
    vertex 7.9775491243742245 23.258374399963902 0.0
    vertex 6.728365671602835 22.803708806017234 3.5
    vertex 7.9775491243742245 23.258374399963902 3.5
  endloop
endfacet
facet normal -1.0 0.0 0.0
  outer loop
    vertex 7.9775491243742245 23.865515403882988 3.5
    vertex 7.9775491243742245 23.258374399963902 0.0
    vertex 7.9775491243742245 23.258374399963902 3.5
  endloop
endfacet
facet normal -1.0 0.0 0.0
  outer loop
    vertex 7.9775491243742245 23.258374399963902 0.0
    vertex 7.9775491243742245 23.865515403882988 3.5
    vertex 7.9775491243742245 23.865515403882988 0.0
  endloop
endfacet
facet normal -0.3420201433256688 -0.9396926207859084 -0.0
  outer loop
    vertex 7.9775491243742245 23.865515403882988 3.5
    vertex 6.728365671602835 24.320180997829656 0.0
    vertex 7.9775491243742245 23.865515403882988 0.0
  endloop
endfacet
facet normal -0.3420201433256688 -0.9396926207859084 -0.0
  outer loop
    vertex 6.728365671602835 24.320180997829656 0.0
    vertex 7.9775491243742245 23.865515403882988 3.5
    vertex 6.728365671602835 24.320180997829656 3.5
  endloop
endfacet
facet normal -1.0 0.0 0.0
  outer loop
    vertex 6.728365671602835 25.42170268400873 3.5
    vertex 6.728365671602835 24.320180997829656 0.0
    vertex 6.728365671602835 24.320180997829656 3.5
  endloop
endfacet
facet normal -1.0 0.0 0.0
  outer loop
    vertex 6.728365671602835 24.320180997829656 0.0
    vertex 6.728365671602835 25.42170268400873 3.5
    vertex 6.728365671602835 25.42170268400873 0.0
  endloop
endfacet
facet normal -0.3420201433256688 0.9396926207859084 0.0
  outer loop
    vertex 6.728365671602835 25.42170268400873 3.5
    vertex 7.9775491243742245 25.876368277955397 0.0
    vertex 6.728365671602835 25.42170268400873 0.0
  endloop
endfacet
facet normal -0.3420201433256688 0.9396926207859084 0.0
  outer loop
    vertex 7.9775491243742245 25.876368277955397 0.0
    vertex 6.728365671602835 25.42170268400873 3.5
    vertex 7.9775491243742245 25.876368277955397 3.5
  endloop
endfacet
facet normal -1.0 0.0 0.0
  outer loop
    vertex 7.9775491243742245 26.483509281874483 3.5
    vertex 7.9775491243742245 25.876368277955397 0.0
    vertex 7.9775491243742245 25.876368277955397 3.5
  endloop
endfacet
facet normal -1.0 0.0 0.0
  outer loop
    vertex 7.9775491243742245 25.876368277955397 0.0
    vertex 7.9775491243742245 26.483509281874483 3.5
    vertex 7.9775491243742245 26.483509281874483 0.0
  endloop
endfacet
facet normal -0.342020143325669 -0.9396926207859083 -0.0
  outer loop
    vertex 7.9775491243742245 26.483509281874483 3.5
    vertex 6.728365671602835 26.93817487582115 0.0
    vertex 7.9775491243742245 26.483509281874483 0.0
  endloop
endfacet
facet normal -0.342020143325669 -0.9396926207859083 -0.0
  outer loop
    vertex 6.728365671602835 26.93817487582115 0.0
    vertex 7.9775491243742245 26.483509281874483 3.5
    vertex 6.728365671602835 26.93817487582115 3.5
  endloop
endfacet
facet normal -1.0 0.0 0.0
  outer loop
    vertex 6.728365671602835 28.039696562000223 3.5
    vertex 6.728365671602835 26.93817487582115 0.0
    vertex 6.728365671602835 26.93817487582115 3.5
  endloop
endfacet
facet normal -1.0 0.0 0.0
  outer loop
    vertex 6.728365671602835 26.93817487582115 0.0
    vertex 6.728365671602835 28.039696562000223 3.5
    vertex 6.728365671602835 28.039696562000223 0.0
  endloop
endfacet
facet normal -0.342020143325669 0.9396926207859083 0.0
  outer loop
    vertex 6.728365671602835 28.039696562000223 3.5
    vertex 7.9775491243742245 28.49436215594689 0.0
    vertex 6.728365671602835 28.039696562000223 0.0
  endloop
endfacet
facet normal -0.342020143325669 0.9396926207859083 0.0
  outer loop
    vertex 7.9775491243742245 28.49436215594689 0.0
    vertex 6.728365671602835 28.039696562000223 3.5
    vertex 7.9775491243742245 28.49436215594689 3.5
  endloop
endfacet
facet normal -1.0 0.0 0.0
  outer loop
    vertex 7.9775491243742245 29.101503159865977 3.5
    vertex 7.9775491243742245 28.49436215594689 0.0
    vertex 7.9775491243742245 28.49436215594689 3.5
  endloop
endfacet
facet normal -1.0 0.0 0.0
  outer loop
    vertex 7.9775491243742245 28.49436215594689 0.0
    vertex 7.9775491243742245 29.101503159865977 3.5
    vertex 7.9775491243742245 29.101503159865977 0.0
  endloop
endfacet
facet normal -0.3420201433256686 -0.9396926207859086 -0.0
  outer loop
    vertex 7.9775491243742245 29.101503159865977 3.5
    vertex 6.728365671602835 29.556168753812642 0.0
    vertex 7.9775491243742245 29.101503159865977 0.0
  endloop
endfacet
facet normal -0.3420201433256686 -0.9396926207859086 -0.0
  outer loop
    vertex 6.728365671602835 29.556168753812642 0.0
    vertex 7.9775491243742245 29.101503159865977 3.5
    vertex 6.728365671602835 29.556168753812642 3.5
  endloop
endfacet
facet normal -1.0 0.0 0.0
  outer loop
    vertex 6.728365671602835 30.657690439991715 3.5
    vertex 6.728365671602835 29.556168753812642 0.0
    vertex 6.728365671602835 29.556168753812642 3.5
  endloop
endfacet
facet normal -1.0 0.0 0.0
  outer loop
    vertex 6.728365671602835 29.556168753812642 0.0
    vertex 6.728365671602835 30.657690439991715 3.5
    vertex 6.728365671602835 30.657690439991715 0.0
  endloop
endfacet
facet normal -0.342020143325669 0.9396926207859083 0.0
  outer loop
    vertex 6.728365671602835 30.657690439991715 3.5
    vertex 7.9775491243742245 31.112356033938383 0.0
    vertex 6.728365671602835 30.657690439991715 0.0
  endloop
endfacet
facet normal -0.342020143325669 0.9396926207859083 0.0
  outer loop
    vertex 7.9775491243742245 31.112356033938383 0.0
    vertex 6.728365671602835 30.657690439991715 3.5
    vertex 7.9775491243742245 31.112356033938383 3.5
  endloop
endfacet
facet normal -1.0 0.0 0.0
  outer loop
    vertex 7.9775491243742245 31.71949703785747 3.5
    vertex 7.9775491243742245 31.112356033938383 0.0
    vertex 7.9775491243742245 31.112356033938383 3.5
  endloop
endfacet
facet normal -1.0 0.0 0.0
  outer loop
    vertex 7.9775491243742245 31.112356033938383 0.0
    vertex 7.9775491243742245 31.71949703785747 3.5
    vertex 7.9775491243742245 31.71949703785747 0.0
  endloop
endfacet
facet normal -0.342020143325669 -0.9396926207859083 -0.0
  outer loop
    vertex 7.9775491243742245 31.71949703785747 3.5
    vertex 6.728365671602835 32.17416263180414 0.0
    vertex 7.9775491243742245 31.71949703785747 0.0
  endloop
endfacet
facet normal -0.342020143325669 -0.9396926207859083 -0.0
  outer loop
    vertex 6.728365671602835 32.17416263180414 0.0
    vertex 7.9775491243742245 31.71949703785747 3.5
    vertex 6.728365671602835 32.17416263180414 3.5
  endloop
endfacet
facet normal -1.0 0.0 0.0
  outer loop
    vertex 6.728365671602835 33.275684317983206 3.5
    vertex 6.728365671602835 32.17416263180414 0.0
    vertex 6.728365671602835 32.17416263180414 3.5
  endloop
endfacet
facet normal -1.0 0.0 0.0
  outer loop
    vertex 6.728365671602835 32.17416263180414 0.0
    vertex 6.728365671602835 33.275684317983206 3.5
    vertex 6.728365671602835 33.275684317983206 0.0
  endloop
endfacet
facet normal -0.342020143325669 0.9396926207859083 0.0
  outer loop
    vertex 6.728365671602835 33.275684317983206 3.5
    vertex 7.9775491243742245 33.73034991192988 0.0
    vertex 6.728365671602835 33.275684317983206 0.0
  endloop
endfacet
facet normal -0.342020143325669 0.9396926207859083 0.0
  outer loop
    vertex 7.9775491243742245 33.73034991192988 0.0
    vertex 6.728365671602835 33.275684317983206 3.5
    vertex 7.9775491243742245 33.73034991192988 3.5
  endloop
endfacet
facet normal -1.0 0.0 0.0
  outer loop
    vertex 7.9775491243742245 34.33749091584897 3.5
    vertex 7.9775491243742245 33.73034991192988 0.0
    vertex 7.9775491243742245 33.73034991192988 3.5
  endloop
endfacet
facet normal -1.0 0.0 0.0
  outer loop
    vertex 7.9775491243742245 33.73034991192988 0.0
    vertex 7.9775491243742245 34.33749091584897 3.5
    vertex 7.9775491243742245 34.33749091584897 0.0
  endloop
endfacet
facet normal -0.34202014332566805 -0.9396926207859086 -0.0
  outer loop
    vertex 7.9775491243742245 34.33749091584897 3.5
    vertex 6.728365671602835 34.79215650979563 0.0
    vertex 7.9775491243742245 34.33749091584897 0.0
  endloop
endfacet
facet normal -0.34202014332566805 -0.9396926207859086 -0.0
  outer loop
    vertex 6.728365671602835 34.79215650979563 0.0
    vertex 7.9775491243742245 34.33749091584897 3.5
    vertex 6.728365671602835 34.79215650979563 3.5
  endloop
endfacet
facet normal -1.0 0.0 0.0
  outer loop
    vertex 6.728365671602835 35.8936781959747 3.5
    vertex 6.728365671602835 34.79215650979563 0.0
    vertex 6.728365671602835 34.79215650979563 3.5
  endloop
endfacet
facet normal -1.0 0.0 0.0
  outer loop
    vertex 6.728365671602835 34.79215650979563 0.0
    vertex 6.728365671602835 35.8936781959747 3.5
    vertex 6.728365671602835 35.8936781959747 0.0
  endloop
endfacet
facet normal -0.342020143325669 0.9396926207859083 0.0
  outer loop
    vertex 6.728365671602835 35.8936781959747 3.5
    vertex 7.9775491243742245 36.348343789921365 0.0
    vertex 6.728365671602835 35.8936781959747 0.0
  endloop
endfacet
facet normal -0.342020143325669 0.9396926207859083 0.0
  outer loop
    vertex 7.9775491243742245 36.348343789921365 0.0
    vertex 6.728365671602835 35.8936781959747 3.5
    vertex 7.9775491243742245 36.348343789921365 3.5
  endloop
endfacet
facet normal -1.0 0.0 0.0
  outer loop
    vertex 7.9775491243742245 36.955484793840455 3.5
    vertex 7.9775491243742245 36.348343789921365 0.0
    vertex 7.9775491243742245 36.348343789921365 3.5
  endloop
endfacet
facet normal -1.0 0.0 0.0
  outer loop
    vertex 7.9775491243742245 36.348343789921365 0.0
    vertex 7.9775491243742245 36.955484793840455 3.5
    vertex 7.9775491243742245 36.955484793840455 0.0
  endloop
endfacet
facet normal -0.342020143325669 -0.9396926207859083 -0.0
  outer loop
    vertex 7.9775491243742245 36.955484793840455 3.5
    vertex 6.728365671602835 37.41015038778712 0.0
    vertex 7.9775491243742245 36.955484793840455 0.0
  endloop
endfacet
facet normal -0.342020143325669 -0.9396926207859083 -0.0
  outer loop
    vertex 6.728365671602835 37.41015038778712 0.0
    vertex 7.9775491243742245 36.955484793840455 3.5
    vertex 6.728365671602835 37.41015038778712 3.5
  endloop
endfacet
facet normal -1.0 0.0 0.0
  outer loop
    vertex 6.728365671602835 38.5116720739662 3.5
    vertex 6.728365671602835 37.41015038778712 0.0
    vertex 6.728365671602835 37.41015038778712 3.5
  endloop
endfacet
facet normal -1.0 0.0 0.0
  outer loop
    vertex 6.728365671602835 37.41015038778712 0.0
    vertex 6.728365671602835 38.5116720739662 3.5
    vertex 6.728365671602835 38.5116720739662 0.0
  endloop
endfacet
facet normal -0.342020143325669 0.9396926207859083 0.0
  outer loop
    vertex 6.728365671602835 38.5116720739662 3.5
    vertex 7.9775491243742245 38.96633766791287 0.0
    vertex 6.728365671602835 38.5116720739662 0.0
  endloop
endfacet
facet normal -0.342020143325669 0.9396926207859083 0.0
  outer loop
    vertex 7.9775491243742245 38.96633766791287 0.0
    vertex 6.728365671602835 38.5116720739662 3.5
    vertex 7.9775491243742245 38.96633766791287 3.5
  endloop
endfacet
facet normal -1.0 0.0 0.0
  outer loop
    vertex 7.9775491243742245 39.57347867183196 3.5
    vertex 7.9775491243742245 38.96633766791287 0.0
    vertex 7.9775491243742245 38.96633766791287 3.5
  endloop
endfacet
facet normal -1.0 0.0 0.0
  outer loop
    vertex 7.9775491243742245 38.96633766791287 0.0
    vertex 7.9775491243742245 39.57347867183196 3.5
    vertex 7.9775491243742245 39.57347867183196 0.0
  endloop
endfacet
facet normal -0.342020143325669 -0.9396926207859083 -0.0
  outer loop
    vertex 7.9775491243742245 39.57347867183196 3.5
    vertex 6.728365671602835 40.02814426577862 0.0
    vertex 7.9775491243742245 39.57347867183196 0.0
  endloop
endfacet
facet normal -0.342020143325669 -0.9396926207859083 -0.0
  outer loop
    vertex 6.728365671602835 40.02814426577862 0.0
    vertex 7.9775491243742245 39.57347867183196 3.5
    vertex 6.728365671602835 40.02814426577862 3.5
  endloop
endfacet
facet normal -1.0 0.0 0.0
  outer loop
    vertex 6.728365671602835 41.12966595195769 3.5
    vertex 6.728365671602835 40.02814426577862 0.0
    vertex 6.728365671602835 40.02814426577862 3.5
  endloop
endfacet
facet normal -1.0 0.0 0.0
  outer loop
    vertex 6.728365671602835 40.02814426577862 0.0
    vertex 6.728365671602835 41.12966595195769 3.5
    vertex 6.728365671602835 41.12966595195769 0.0
  endloop
endfacet
facet normal -0.342020143325669 0.9396926207859083 0.0
  outer loop
    vertex 6.728365671602835 41.12966595195769 3.5
    vertex 7.9775491243742245 41.58433154590436 0.0
    vertex 6.728365671602835 41.12966595195769 0.0
  endloop
endfacet
facet normal -0.342020143325669 0.9396926207859083 0.0
  outer loop
    vertex 7.9775491243742245 41.58433154590436 0.0
    vertex 6.728365671602835 41.12966595195769 3.5
    vertex 7.9775491243742245 41.58433154590436 3.5
  endloop
endfacet
facet normal -1.0 0.0 0.0
  outer loop
    vertex 7.9775491243742245 42.191472549823445 3.5
    vertex 7.9775491243742245 41.58433154590436 0.0
    vertex 7.9775491243742245 41.58433154590436 3.5
  endloop
endfacet
facet normal -1.0 0.0 0.0
  outer loop
    vertex 7.9775491243742245 41.58433154590436 0.0
    vertex 7.9775491243742245 42.191472549823445 3.5
    vertex 7.9775491243742245 42.191472549823445 0.0
  endloop
endfacet
facet normal -0.342020143325669 -0.9396926207859083 -0.0
  outer loop
    vertex 7.9775491243742245 42.191472549823445 3.5
    vertex 6.728365671602835 42.646138143770116 0.0
    vertex 7.9775491243742245 42.191472549823445 0.0
  endloop
endfacet
facet normal -0.342020143325669 -0.9396926207859083 -0.0
  outer loop
    vertex 6.728365671602835 42.646138143770116 0.0
    vertex 7.9775491243742245 42.191472549823445 3.5
    vertex 6.728365671602835 42.646138143770116 3.5
  endloop
endfacet
facet normal -1.0 0.0 0.0
  outer loop
    vertex 6.728365671602835 43.747659829949185 3.5
    vertex 6.728365671602835 42.646138143770116 0.0
    vertex 6.728365671602835 42.646138143770116 3.5
  endloop
endfacet
facet normal -1.0 0.0 0.0
  outer loop
    vertex 6.728365671602835 42.646138143770116 0.0
    vertex 6.728365671602835 43.747659829949185 3.5
    vertex 6.728365671602835 43.747659829949185 0.0
  endloop
endfacet
facet normal -0.342020143325669 0.9396926207859083 0.0
  outer loop
    vertex 6.728365671602835 43.747659829949185 3.5
    vertex 7.9775491243742245 44.20232542389585 0.0
    vertex 6.728365671602835 43.747659829949185 0.0
  endloop
endfacet
facet normal -0.342020143325669 0.9396926207859083 0.0
  outer loop
    vertex 7.9775491243742245 44.20232542389585 0.0
    vertex 6.728365671602835 43.747659829949185 3.5
    vertex 7.9775491243742245 44.20232542389585 3.5
  endloop
endfacet
facet normal -1.0 0.0 0.0
  outer loop
    vertex 7.9775491243742245 44.80946642781494 3.5
    vertex 7.9775491243742245 44.20232542389585 0.0
    vertex 7.9775491243742245 44.20232542389585 3.5
  endloop
endfacet
facet normal -1.0 0.0 0.0
  outer loop
    vertex 7.9775491243742245 44.20232542389585 0.0
    vertex 7.9775491243742245 44.80946642781494 3.5
    vertex 7.9775491243742245 44.80946642781494 0.0
  endloop
endfacet
facet normal -0.342020143325669 -0.9396926207859083 -0.0
  outer loop
    vertex 7.9775491243742245 44.80946642781494 3.5
    vertex 6.728365671602835 45.264132021761604 0.0
    vertex 7.9775491243742245 44.80946642781494 0.0
  endloop
endfacet
facet normal -0.342020143325669 -0.9396926207859083 -0.0
  outer loop
    vertex 6.728365671602835 45.264132021761604 0.0
    vertex 7.9775491243742245 44.80946642781494 3.5
    vertex 6.728365671602835 45.264132021761604 3.5
  endloop
endfacet
facet normal -1.0 0.0 0.0
  outer loop
    vertex 6.728365671602835 46.36565370794068 3.5
    vertex 6.728365671602835 45.264132021761604 0.0
    vertex 6.728365671602835 45.264132021761604 3.5
  endloop
endfacet
facet normal -1.0 0.0 0.0
  outer loop
    vertex 6.728365671602835 45.264132021761604 0.0
    vertex 6.728365671602835 46.36565370794068 3.5
    vertex 6.728365671602835 46.36565370794068 0.0
  endloop
endfacet
facet normal -0.342020143325669 0.9396926207859083 0.0
  outer loop
    vertex 6.728365671602835 46.36565370794068 3.5
    vertex 7.9775491243742245 46.820319301887345 0.0
    vertex 6.728365671602835 46.36565370794068 0.0
  endloop
endfacet
facet normal -0.342020143325669 0.9396926207859083 0.0
  outer loop
    vertex 7.9775491243742245 46.820319301887345 0.0
    vertex 6.728365671602835 46.36565370794068 3.5
    vertex 7.9775491243742245 46.820319301887345 3.5
  endloop
endfacet
facet normal -1.0 0.0 0.0
  outer loop
    vertex 7.9775491243742245 47.427460305806434 3.5
    vertex 7.9775491243742245 46.820319301887345 0.0
    vertex 7.9775491243742245 46.820319301887345 3.5
  endloop
endfacet
facet normal -1.0 0.0 0.0
  outer loop
    vertex 7.9775491243742245 46.820319301887345 0.0
    vertex 7.9775491243742245 47.427460305806434 3.5
    vertex 7.9775491243742245 47.427460305806434 0.0
  endloop
endfacet
facet normal -0.342020143325669 -0.9396926207859083 -0.0
  outer loop
    vertex 7.9775491243742245 47.427460305806434 3.5
    vertex 6.728365671602835 47.882125899753106 0.0
    vertex 7.9775491243742245 47.427460305806434 0.0
  endloop
endfacet
facet normal -0.342020143325669 -0.9396926207859083 -0.0
  outer loop
    vertex 6.728365671602835 47.882125899753106 0.0
    vertex 7.9775491243742245 47.427460305806434 3.5
    vertex 6.728365671602835 47.882125899753106 3.5
  endloop
endfacet
facet normal -1.0 0.0 0.0
  outer loop
    vertex 6.728365671602835 48.983647585932175 3.5
    vertex 6.728365671602835 47.882125899753106 0.0
    vertex 6.728365671602835 47.882125899753106 3.5
  endloop
endfacet
facet normal -1.0 0.0 0.0
  outer loop
    vertex 6.728365671602835 47.882125899753106 0.0
    vertex 6.728365671602835 48.983647585932175 3.5
    vertex 6.728365671602835 48.983647585932175 0.0
  endloop
endfacet
facet normal -0.342020143325669 0.9396926207859083 0.0
  outer loop
    vertex 6.728365671602835 48.983647585932175 3.5
    vertex 7.9775491243742245 49.43831317987884 0.0
    vertex 6.728365671602835 48.983647585932175 0.0
  endloop
endfacet
facet normal -0.342020143325669 0.9396926207859083 0.0
  outer loop
    vertex 7.9775491243742245 49.43831317987884 0.0
    vertex 6.728365671602835 48.983647585932175 3.5
    vertex 7.9775491243742245 49.43831317987884 3.5
  endloop
endfacet
facet normal -1.0 0.0 0.0
  outer loop
    vertex 7.9775491243742245 50.04545418379792 3.5
    vertex 7.9775491243742245 49.43831317987884 0.0
    vertex 7.9775491243742245 49.43831317987884 3.5
  endloop
endfacet
facet normal -1.0 0.0 0.0
  outer loop
    vertex 7.9775491243742245 49.43831317987884 0.0
    vertex 7.9775491243742245 50.04545418379792 3.5
    vertex 7.9775491243742245 50.04545418379792 0.0
  endloop
endfacet
facet normal -0.342020143325669 -0.9396926207859083 -0.0
  outer loop
    vertex 7.9775491243742245 50.04545418379792 3.5
    vertex 6.728365671602835 50.500119777744594 0.0
    vertex 7.9775491243742245 50.04545418379792 0.0
  endloop
endfacet
facet normal -0.342020143325669 -0.9396926207859083 -0.0
  outer loop
    vertex 6.728365671602835 50.500119777744594 0.0
    vertex 7.9775491243742245 50.04545418379792 3.5
    vertex 6.728365671602835 50.500119777744594 3.5
  endloop
endfacet
facet normal -1.0 0.0 0.0
  outer loop
    vertex 6.728365671602835 51.60164146392367 3.5
    vertex 6.728365671602835 50.500119777744594 0.0
    vertex 6.728365671602835 50.500119777744594 3.5
  endloop
endfacet
facet normal -1.0 0.0 0.0
  outer loop
    vertex 6.728365671602835 50.500119777744594 0.0
    vertex 6.728365671602835 51.60164146392367 3.5
    vertex 6.728365671602835 51.60164146392367 0.0
  endloop
endfacet
facet normal -0.342020143325669 0.9396926207859083 0.0
  outer loop
    vertex 6.728365671602835 51.60164146392367 3.5
    vertex 7.9775491243742245 52.056307057870335 0.0
    vertex 6.728365671602835 51.60164146392367 0.0
  endloop
endfacet
facet normal -0.342020143325669 0.9396926207859083 0.0
  outer loop
    vertex 7.9775491243742245 52.056307057870335 0.0
    vertex 6.728365671602835 51.60164146392367 3.5
    vertex 7.9775491243742245 52.056307057870335 3.5
  endloop
endfacet
facet normal 0.0 1.0 0.0
  outer loop
    vertex 7.9775491243742245 52.056307057870335 3.5
    vertex 12.013382457707559 52.056307057870335 0.0
    vertex 7.9775491243742245 52.056307057870335 0.0
  endloop
endfacet
facet normal 0.0 1.0 0.0
  outer loop
    vertex 12.013382457707559 52.056307057870335 0.0
    vertex 7.9775491243742245 52.056307057870335 3.5
    vertex 12.013382457707559 52.056307057870335 3.5
  endloop
endfacet
facet normal 1.0 0.0 0.0
  outer loop
    vertex 12.013382457707559 52.056307057870335 0.0
    vertex 12.013382457707559 21.247521525891493 3.5
    vertex 12.013382457707559 21.247521525891493 0.0
  endloop
endfacet
facet normal 1.0 0.0 0.0
  outer loop
    vertex 12.013382457707559 21.247521525891493 3.5
    vertex 12.013382457707559 52.056307057870335 0.0
    vertex 12.013382457707559 52.056307057870335 3.5
  endloop
endfacet
facet normal 0.0 -1.0 0.0
  outer loop
    vertex 12.013382457707559 21.247521525891493 3.5
    vertex 7.9775491243742245 21.247521525891493 0.0
    vertex 12.013382457707559 21.247521525891493 0.0
  endloop
endfacet
facet normal 0.0 -1.0 0.0
  outer loop
    vertex 7.9775491243742245 21.247521525891493 0.0
    vertex 12.013382457707559 21.247521525891493 3.5
    vertex 7.9775491243742245 21.247521525891493 3.5
  endloop
endfacet
facet normal 0.0 0.0 -1.0
  outer loop
    vertex 7.9641666666666655 28.49436215594689 0.0
    vertex 6.714983213895276 26.93817487582115 0.0
    vertex 6.714983213895276 28.039696562000223 0.0
  endloop
endfacet
facet normal 0.0 0.0 -1.0
  outer loop
    vertex 6.714983213895276 26.93817487582115 0.0
    vertex 7.9641666666666655 28.49436215594689 0.0
    vertex 7.9641666666666655 26.483509281874483 0.0
  endloop
endfacet
facet normal 0.0 0.0 -1.0
  outer loop
    vertex 7.9641666666666655 26.483509281874483 0.0
    vertex 7.9641666666666655 28.49436215594689 0.0
    vertex 12.0 28.49436215594689 0.0
  endloop
endfacet
facet normal 0.0 0.0 -1.0
  outer loop
    vertex 7.9641666666666655 26.483509281874483 0.0
    vertex 12.0 28.49436215594689 0.0
    vertex 7.9641666666666655 25.876368277955397 0.0
  endloop
endfacet
facet normal 0.0 0.0 -1.0
  outer loop
    vertex 7.9641666666666655 25.876368277955397 0.0
    vertex 12.0 28.49436215594689 0.0
    vertex 7.9641666666666655 23.86551540388299 0.0
  endloop
endfacet
facet normal 0.0 0.0 -1.0
  outer loop
    vertex 7.9641666666666655 23.86551540388299 0.0
    vertex 12.0 28.49436215594689 0.0
    vertex 7.9641666666666655 23.258374399963902 0.0
  endloop
endfacet
facet normal 0.0 0.0 -1.0
  outer loop
    vertex 7.9641666666666655 23.258374399963902 0.0
    vertex 12.0 28.49436215594689 0.0
    vertex 7.9641666666666655 21.247521525891493 0.0
  endloop
endfacet
facet normal 0.0 0.0 -1.0
  outer loop
    vertex 7.9641666666666655 21.247521525891493 0.0
    vertex 12.0 28.49436215594689 0.0
    vertex 7.9641666666666655 20.640380521972407 0.0
  endloop
endfacet
facet normal 0.0 0.0 -1.0
  outer loop
    vertex 7.9641666666666655 20.640380521972407 0.0
    vertex 12.0 28.49436215594689 0.0
    vertex 7.9641666666666655 18.6295276479 0.0
  endloop
endfacet
facet normal 0.0 0.0 -1.0
  outer loop
    vertex 7.9641666666666655 18.6295276479 0.0
    vertex 12.0 28.49436215594689 0.0
    vertex 7.9641666666666655 18.022386643980916 0.0
  endloop
endfacet
facet normal 0.0 0.0 -1.0
  outer loop
    vertex 7.9641666666666655 18.022386643980916 0.0
    vertex 12.0 28.49436215594689 0.0
    vertex 7.9641666666666655 16.01153376990851 0.0
  endloop
endfacet
facet normal 0.0 0.0 -1.0
  outer loop
    vertex 7.9641666666666655 16.01153376990851 0.0
    vertex 12.0 28.49436215594689 0.0
    vertex 7.9641666666666655 15.404392765989419 0.0
  endloop
endfacet
facet normal 0.0 0.0 -1.0
  outer loop
    vertex 7.9641666666666655 15.404392765989419 0.0
    vertex 12.0 28.49436215594689 0.0
    vertex 7.9641666666666655 13.393539891917014 0.0
  endloop
endfacet
facet normal 0.0 0.0 -1.0
  outer loop
    vertex 7.9641666666666655 13.393539891917014 0.0
    vertex 12.0 28.49436215594689 0.0
    vertex 7.9641666666666655 12.786398887997928 0.0
  endloop
endfacet
facet normal 0.0 0.0 -1.0
  outer loop
    vertex 7.9641666666666655 12.786398887997928 0.0
    vertex 12.0 28.49436215594689 0.0
    vertex 7.9641666666666655 10.77554601392552 0.0
  endloop
endfacet
facet normal 0.0 0.0 -1.0
  outer loop
    vertex 7.9641666666666655 10.77554601392552 0.0
    vertex 12.0 28.49436215594689 0.0
    vertex 7.9641666666666655 10.168405010006433 0.0
  endloop
endfacet
facet normal 0.0 0.0 -1.0
  outer loop
    vertex 7.9641666666666655 10.168405010006433 0.0
    vertex 12.0 28.49436215594689 0.0
    vertex 7.9641666666666655 8.157552135934024 0.0
  endloop
endfacet
facet normal 0.0 0.0 -1.0
  outer loop
    vertex 7.9641666666666655 8.157552135934024 0.0
    vertex 12.0 28.49436215594689 0.0
    vertex 7.9641666666666655 7.550411132014938 0.0
  endloop
endfacet
facet normal 0.0 0.0 -1.0
  outer loop
    vertex 7.9641666666666655 7.550411132014938 0.0
    vertex 12.0 28.49436215594689 0.0
    vertex 7.9641666666666655 5.539558257942531 0.0
  endloop
endfacet
facet normal 0.0 0.0 -1.0
  outer loop
    vertex 7.9641666666666655 5.539558257942531 0.0
    vertex 12.0 28.49436215594689 0.0
    vertex 7.9641666666666655 4.932417254023445 0.0
  endloop
endfacet
facet normal 0.0 0.0 -1.0
  outer loop
    vertex 7.9641666666666655 4.932417254023445 0.0
    vertex 12.0 28.49436215594689 0.0
    vertex 7.9641666666666655 2.9215643799510373 0.0
  endloop
endfacet
facet normal 0.0 0.0 -1.0
  outer loop
    vertex 7.9641666666666655 2.9215643799510373 0.0
    vertex 12.0 28.49436215594689 0.0
    vertex 7.9641666666666655 2.3144233760319506 0.0
  endloop
endfacet
facet normal 0.0 0.0 -1.0
  outer loop
    vertex 7.9641666666666655 2.3144233760319506 0.0
    vertex 12.0 28.49436215594689 0.0
    vertex 7.9641666666666655 0.30357050195954344 0.0
  endloop
endfacet
facet normal 0.0 0.0 -1.0
  outer loop
    vertex 7.9641666666666655 0.30357050195954344 0.0
    vertex 12.0 28.49436215594689 0.0
    vertex 7.9641666666666655 -0.3035705019595434 0.0
  endloop
endfacet
facet normal 0.0 0.0 -1.0
  outer loop
    vertex 7.9641666666666655 -0.3035705019595434 0.0
    vertex 12.0 28.49436215594689 0.0
    vertex 7.9641666666666655 -2.3144233760319506 0.0
  endloop
endfacet
facet normal 0.0 0.0 -1.0
  outer loop
    vertex 7.9641666666666655 -2.3144233760319506 0.0
    vertex 12.0 28.49436215594689 0.0
    vertex 12.0 -2.3144233760319506 0.0
  endloop
endfacet
facet normal 0.0 0.0 -1.0
  outer loop
    vertex 7.9641666666666655 -0.3035705019595434 0.0
    vertex 6.714983213895276 -1.859757782085284 0.0
    vertex 6.714983213895276 -0.7582360959062099 0.0
  endloop
endfacet
facet normal 0.0 0.0 -1.0
  outer loop
    vertex 6.714983213895276 -1.859757782085284 0.0
    vertex 7.9641666666666655 -0.3035705019595434 0.0
    vertex 7.9641666666666655 -2.3144233760319506 0.0
  endloop
endfacet
facet normal 0.0 0.0 -1.0
  outer loop
    vertex 7.9641666666666655 2.3144233760319506 0.0
    vertex 6.714983213895276 0.75823609590621 0.0
    vertex 6.714983213895276 1.859757782085284 0.0
  endloop
endfacet
facet normal 0.0 0.0 -1.0
  outer loop
    vertex 6.714983213895276 0.75823609590621 0.0
    vertex 7.9641666666666655 2.3144233760319506 0.0
    vertex 7.9641666666666655 0.30357050195954344 0.0
  endloop
endfacet
facet normal 0.0 0.0 -1.0
  outer loop
    vertex 7.9641666666666655 4.932417254023445 0.0
    vertex 6.714983213895276 3.376229973897704 0.0
    vertex 6.714983213895276 4.477751660076778 0.0
  endloop
endfacet
facet normal 0.0 0.0 -1.0
  outer loop
    vertex 6.714983213895276 3.376229973897704 0.0
    vertex 7.9641666666666655 4.932417254023445 0.0
    vertex 7.9641666666666655 2.9215643799510373 0.0
  endloop
endfacet
facet normal 0.0 0.0 -1.0
  outer loop
    vertex 7.9641666666666655 7.550411132014938 0.0
    vertex 6.714983213895276 5.994223851889197 0.0
    vertex 6.714983213895276 7.095745538068272 0.0
  endloop
endfacet
facet normal 0.0 0.0 -1.0
  outer loop
    vertex 6.714983213895276 5.994223851889197 0.0
    vertex 7.9641666666666655 7.550411132014938 0.0
    vertex 7.9641666666666655 5.539558257942531 0.0
  endloop
endfacet
facet normal 0.0 0.0 -1.0
  outer loop
    vertex 7.9641666666666655 10.168405010006433 0.0
    vertex 6.714983213895276 8.612217729880692 0.0
    vertex 6.714983213895276 9.713739416059767 0.0
  endloop
endfacet
facet normal 0.0 0.0 -1.0
  outer loop
    vertex 6.714983213895276 8.612217729880692 0.0
    vertex 7.9641666666666655 10.168405010006433 0.0
    vertex 7.9641666666666655 8.157552135934024 0.0
  endloop
endfacet
facet normal 0.0 0.0 -1.0
  outer loop
    vertex 7.9641666666666655 12.786398887997928 0.0
    vertex 6.714983213895276 11.230211607872185 0.0
    vertex 6.714983213895276 12.33173329405126 0.0
  endloop
endfacet
facet normal 0.0 0.0 -1.0
  outer loop
    vertex 6.714983213895276 11.230211607872185 0.0
    vertex 7.9641666666666655 12.786398887997928 0.0
    vertex 7.9641666666666655 10.77554601392552 0.0
  endloop
endfacet
facet normal 0.0 0.0 -1.0
  outer loop
    vertex 7.9641666666666655 15.404392765989419 0.0
    vertex 6.714983213895276 13.84820548586368 0.0
    vertex 6.714983213895276 14.949727172042753 0.0
  endloop
endfacet
facet normal 0.0 0.0 -1.0
  outer loop
    vertex 6.714983213895276 13.84820548586368 0.0
    vertex 7.9641666666666655 15.404392765989419 0.0
    vertex 7.9641666666666655 13.393539891917014 0.0
  endloop
endfacet
facet normal 0.0 0.0 -1.0
  outer loop
    vertex 7.9641666666666655 18.022386643980916 0.0
    vertex 6.714983213895276 16.466199363855175 0.0
    vertex 6.714983213895276 17.567721050034248 0.0
  endloop
endfacet
facet normal 0.0 0.0 -1.0
  outer loop
    vertex 6.714983213895276 16.466199363855175 0.0
    vertex 7.9641666666666655 18.022386643980916 0.0
    vertex 7.9641666666666655 16.01153376990851 0.0
  endloop
endfacet
facet normal 0.0 0.0 -1.0
  outer loop
    vertex 7.9641666666666655 20.640380521972407 0.0
    vertex 6.714983213895276 19.08419324184667 0.0
    vertex 6.714983213895276 20.185714928025742 0.0
  endloop
endfacet
facet normal 0.0 0.0 -1.0
  outer loop
    vertex 6.714983213895276 19.08419324184667 0.0
    vertex 7.9641666666666655 20.640380521972407 0.0
    vertex 7.9641666666666655 18.6295276479 0.0
  endloop
endfacet
facet normal 0.0 0.0 -1.0
  outer loop
    vertex 7.9641666666666655 23.258374399963902 0.0
    vertex 6.714983213895276 21.70218711983816 0.0
    vertex 6.714983213895276 22.803708806017234 0.0
  endloop
endfacet
facet normal 0.0 0.0 -1.0
  outer loop
    vertex 6.714983213895276 21.70218711983816 0.0
    vertex 7.9641666666666655 23.258374399963902 0.0
    vertex 7.9641666666666655 21.247521525891493 0.0
  endloop
endfacet
facet normal 0.0 0.0 -1.0
  outer loop
    vertex 7.9641666666666655 25.876368277955397 0.0
    vertex 6.714983213895276 24.320180997829656 0.0
    vertex 6.714983213895276 25.42170268400873 0.0
  endloop
endfacet
facet normal 0.0 0.0 -1.0
  outer loop
    vertex 6.714983213895276 24.320180997829656 0.0
    vertex 7.9641666666666655 25.876368277955397 0.0
    vertex 7.9641666666666655 23.86551540388299 0.0
  endloop
endfacet
facet normal 0.0 0.0 1.0
  outer loop
    vertex 7.9641666666666655 -2.3144233760319506 3.5
    vertex 6.714983213895276 -0.7582360959062099 3.5
    vertex 6.714983213895276 -1.859757782085284 3.5
  endloop
endfacet
facet normal 0.0 0.0 1.0
  outer loop
    vertex 6.714983213895276 -0.7582360959062099 3.5
    vertex 7.9641666666666655 -2.3144233760319506 3.5
    vertex 7.9641666666666655 -0.3035705019595434 3.5
  endloop
endfacet
facet normal 0.0 0.0 1.0
  outer loop
    vertex 7.9641666666666655 -0.3035705019595434 3.5
    vertex 7.9641666666666655 -2.3144233760319506 3.5
    vertex 12.0 -2.3144233760319506 3.5
  endloop
endfacet
facet normal 0.0 0.0 1.0
  outer loop
    vertex 7.9641666666666655 -0.3035705019595434 3.5
    vertex 12.0 -2.3144233760319506 3.5
    vertex 7.9641666666666655 0.30357050195954344 3.5
  endloop
endfacet
facet normal 0.0 0.0 1.0
  outer loop
    vertex 7.9641666666666655 0.30357050195954344 3.5
    vertex 12.0 -2.3144233760319506 3.5
    vertex 7.9641666666666655 2.3144233760319506 3.5
  endloop
endfacet
facet normal 0.0 0.0 1.0
  outer loop
    vertex 7.9641666666666655 2.3144233760319506 3.5
    vertex 12.0 -2.3144233760319506 3.5
    vertex 7.9641666666666655 2.9215643799510373 3.5
  endloop
endfacet
facet normal 0.0 0.0 1.0
  outer loop
    vertex 7.9641666666666655 2.9215643799510373 3.5
    vertex 12.0 -2.3144233760319506 3.5
    vertex 7.9641666666666655 4.932417254023445 3.5
  endloop
endfacet
facet normal 0.0 0.0 1.0
  outer loop
    vertex 7.9641666666666655 4.932417254023445 3.5
    vertex 12.0 -2.3144233760319506 3.5
    vertex 7.9641666666666655 5.539558257942531 3.5
  endloop
endfacet
facet normal 0.0 0.0 1.0
  outer loop
    vertex 7.9641666666666655 5.539558257942531 3.5
    vertex 12.0 -2.3144233760319506 3.5
    vertex 7.9641666666666655 7.550411132014938 3.5
  endloop
endfacet
facet normal 0.0 0.0 1.0
  outer loop
    vertex 7.9641666666666655 7.550411132014938 3.5
    vertex 12.0 -2.3144233760319506 3.5
    vertex 7.9641666666666655 8.157552135934024 3.5
  endloop
endfacet
facet normal 0.0 0.0 1.0
  outer loop
    vertex 7.9641666666666655 8.157552135934024 3.5
    vertex 12.0 -2.3144233760319506 3.5
    vertex 7.9641666666666655 10.168405010006433 3.5
  endloop
endfacet
facet normal 0.0 0.0 1.0
  outer loop
    vertex 7.9641666666666655 10.168405010006433 3.5
    vertex 12.0 -2.3144233760319506 3.5
    vertex 7.9641666666666655 10.77554601392552 3.5
  endloop
endfacet
facet normal 0.0 0.0 1.0
  outer loop
    vertex 7.9641666666666655 10.77554601392552 3.5
    vertex 12.0 -2.3144233760319506 3.5
    vertex 7.9641666666666655 12.786398887997928 3.5
  endloop
endfacet
facet normal 0.0 0.0 1.0
  outer loop
    vertex 7.9641666666666655 12.786398887997928 3.5
    vertex 12.0 -2.3144233760319506 3.5
    vertex 7.9641666666666655 13.393539891917014 3.5
  endloop
endfacet
facet normal 0.0 0.0 1.0
  outer loop
    vertex 7.9641666666666655 13.393539891917014 3.5
    vertex 12.0 -2.3144233760319506 3.5
    vertex 7.9641666666666655 15.404392765989419 3.5
  endloop
endfacet
facet normal 0.0 0.0 1.0
  outer loop
    vertex 7.9641666666666655 15.404392765989419 3.5
    vertex 12.0 -2.3144233760319506 3.5
    vertex 7.9641666666666655 16.01153376990851 3.5
  endloop
endfacet
facet normal 0.0 0.0 1.0
  outer loop
    vertex 7.9641666666666655 16.01153376990851 3.5
    vertex 12.0 -2.3144233760319506 3.5
    vertex 7.9641666666666655 18.022386643980916 3.5
  endloop
endfacet
facet normal 0.0 0.0 1.0
  outer loop
    vertex 7.9641666666666655 18.022386643980916 3.5
    vertex 12.0 -2.3144233760319506 3.5
    vertex 7.9641666666666655 18.6295276479 3.5
  endloop
endfacet
facet normal 0.0 0.0 1.0
  outer loop
    vertex 7.9641666666666655 18.6295276479 3.5
    vertex 12.0 -2.3144233760319506 3.5
    vertex 7.9641666666666655 20.640380521972407 3.5
  endloop
endfacet
facet normal 0.0 0.0 1.0
  outer loop
    vertex 7.9641666666666655 20.640380521972407 3.5
    vertex 12.0 -2.3144233760319506 3.5
    vertex 7.9641666666666655 21.247521525891493 3.5
  endloop
endfacet
facet normal 0.0 0.0 1.0
  outer loop
    vertex 7.9641666666666655 21.247521525891493 3.5
    vertex 12.0 -2.3144233760319506 3.5
    vertex 7.9641666666666655 23.258374399963902 3.5
  endloop
endfacet
facet normal 0.0 0.0 1.0
  outer loop
    vertex 7.9641666666666655 23.258374399963902 3.5
    vertex 12.0 -2.3144233760319506 3.5
    vertex 7.9641666666666655 23.86551540388299 3.5
  endloop
endfacet
facet normal 0.0 0.0 1.0
  outer loop
    vertex 7.9641666666666655 23.86551540388299 3.5
    vertex 12.0 -2.3144233760319506 3.5
    vertex 7.9641666666666655 25.876368277955397 3.5
  endloop
endfacet
facet normal 0.0 0.0 1.0
  outer loop
    vertex 7.9641666666666655 25.876368277955397 3.5
    vertex 12.0 -2.3144233760319506 3.5
    vertex 7.9641666666666655 26.483509281874483 3.5
  endloop
endfacet
facet normal 0.0 0.0 1.0
  outer loop
    vertex 7.9641666666666655 26.483509281874483 3.5
    vertex 12.0 -2.3144233760319506 3.5
    vertex 7.9641666666666655 28.49436215594689 3.5
  endloop
endfacet
facet normal 0.0 0.0 1.0
  outer loop
    vertex 7.9641666666666655 28.49436215594689 3.5
    vertex 12.0 -2.3144233760319506 3.5
    vertex 12.0 28.49436215594689 3.5
  endloop
endfacet
facet normal 0.0 0.0 1.0
  outer loop
    vertex 7.9641666666666655 26.483509281874483 3.5
    vertex 6.714983213895276 28.039696562000223 3.5
    vertex 6.714983213895276 26.93817487582115 3.5
  endloop
endfacet
facet normal 0.0 0.0 1.0
  outer loop
    vertex 6.714983213895276 28.039696562000223 3.5
    vertex 7.9641666666666655 26.483509281874483 3.5
    vertex 7.9641666666666655 28.49436215594689 3.5
  endloop
endfacet
facet normal 0.0 0.0 1.0
  outer loop
    vertex 7.9641666666666655 23.86551540388299 3.5
    vertex 6.714983213895276 25.42170268400873 3.5
    vertex 6.714983213895276 24.320180997829656 3.5
  endloop
endfacet
facet normal 0.0 0.0 1.0
  outer loop
    vertex 6.714983213895276 25.42170268400873 3.5
    vertex 7.9641666666666655 23.86551540388299 3.5
    vertex 7.9641666666666655 25.876368277955397 3.5
  endloop
endfacet
facet normal 0.0 0.0 1.0
  outer loop
    vertex 7.9641666666666655 21.247521525891493 3.5
    vertex 6.714983213895276 22.803708806017234 3.5
    vertex 6.714983213895276 21.70218711983816 3.5
  endloop
endfacet
facet normal 0.0 0.0 1.0
  outer loop
    vertex 6.714983213895276 22.803708806017234 3.5
    vertex 7.9641666666666655 21.247521525891493 3.5
    vertex 7.9641666666666655 23.258374399963902 3.5
  endloop
endfacet
facet normal 0.0 0.0 1.0
  outer loop
    vertex 7.9641666666666655 18.6295276479 3.5
    vertex 6.714983213895276 20.185714928025742 3.5
    vertex 6.714983213895276 19.08419324184667 3.5
  endloop
endfacet
facet normal 0.0 0.0 1.0
  outer loop
    vertex 6.714983213895276 20.185714928025742 3.5
    vertex 7.9641666666666655 18.6295276479 3.5
    vertex 7.9641666666666655 20.640380521972407 3.5
  endloop
endfacet
facet normal 0.0 0.0 1.0
  outer loop
    vertex 7.9641666666666655 16.01153376990851 3.5
    vertex 6.714983213895276 17.567721050034248 3.5
    vertex 6.714983213895276 16.466199363855175 3.5
  endloop
endfacet
facet normal 0.0 0.0 1.0
  outer loop
    vertex 6.714983213895276 17.567721050034248 3.5
    vertex 7.9641666666666655 16.01153376990851 3.5
    vertex 7.9641666666666655 18.022386643980916 3.5
  endloop
endfacet
facet normal 0.0 0.0 1.0
  outer loop
    vertex 7.9641666666666655 13.393539891917014 3.5
    vertex 6.714983213895276 14.949727172042753 3.5
    vertex 6.714983213895276 13.84820548586368 3.5
  endloop
endfacet
facet normal 0.0 0.0 1.0
  outer loop
    vertex 6.714983213895276 14.949727172042753 3.5
    vertex 7.9641666666666655 13.393539891917014 3.5
    vertex 7.9641666666666655 15.404392765989419 3.5
  endloop
endfacet
facet normal 0.0 0.0 1.0
  outer loop
    vertex 7.9641666666666655 10.77554601392552 3.5
    vertex 6.714983213895276 12.33173329405126 3.5
    vertex 6.714983213895276 11.230211607872185 3.5
  endloop
endfacet
facet normal 0.0 0.0 1.0
  outer loop
    vertex 6.714983213895276 12.33173329405126 3.5
    vertex 7.9641666666666655 10.77554601392552 3.5
    vertex 7.9641666666666655 12.786398887997928 3.5
  endloop
endfacet
facet normal 0.0 0.0 1.0
  outer loop
    vertex 7.9641666666666655 8.157552135934024 3.5
    vertex 6.714983213895276 9.713739416059767 3.5
    vertex 6.714983213895276 8.612217729880692 3.5
  endloop
endfacet
facet normal 0.0 0.0 1.0
  outer loop
    vertex 6.714983213895276 9.713739416059767 3.5
    vertex 7.9641666666666655 8.157552135934024 3.5
    vertex 7.9641666666666655 10.168405010006433 3.5
  endloop
endfacet
facet normal 0.0 0.0 1.0
  outer loop
    vertex 7.9641666666666655 5.539558257942531 3.5
    vertex 6.714983213895276 7.095745538068272 3.5
    vertex 6.714983213895276 5.994223851889197 3.5
  endloop
endfacet
facet normal 0.0 0.0 1.0
  outer loop
    vertex 6.714983213895276 7.095745538068272 3.5
    vertex 7.9641666666666655 5.539558257942531 3.5
    vertex 7.9641666666666655 7.550411132014938 3.5
  endloop
endfacet
facet normal 0.0 0.0 1.0
  outer loop
    vertex 7.9641666666666655 2.9215643799510373 3.5
    vertex 6.714983213895276 4.477751660076778 3.5
    vertex 6.714983213895276 3.376229973897704 3.5
  endloop
endfacet
facet normal 0.0 0.0 1.0
  outer loop
    vertex 6.714983213895276 4.477751660076778 3.5
    vertex 7.9641666666666655 2.9215643799510373 3.5
    vertex 7.9641666666666655 4.932417254023445 3.5
  endloop
endfacet
facet normal 0.0 0.0 1.0
  outer loop
    vertex 7.9641666666666655 0.30357050195954344 3.5
    vertex 6.714983213895276 1.859757782085284 3.5
    vertex 6.714983213895276 0.75823609590621 3.5
  endloop
endfacet
facet normal 0.0 0.0 1.0
  outer loop
    vertex 6.714983213895276 1.859757782085284 3.5
    vertex 7.9641666666666655 0.30357050195954344 3.5
    vertex 7.9641666666666655 2.3144233760319506 3.5
  endloop
endfacet
facet normal -0.3420201433256688 -0.9396926207859084 0.0
  outer loop
    vertex 7.9641666666666655 -2.3144233760319506 3.5
    vertex 6.714983213895276 -1.859757782085284 0.0
    vertex 7.9641666666666655 -2.3144233760319506 0.0
  endloop
endfacet
facet normal -0.3420201433256688 -0.9396926207859084 0.0
  outer loop
    vertex 6.714983213895276 -1.859757782085284 0.0
    vertex 7.9641666666666655 -2.3144233760319506 3.5
    vertex 6.714983213895276 -1.859757782085284 3.5
  endloop
endfacet
facet normal -1.0 0.0 0.0
  outer loop
    vertex 6.714983213895276 -0.7582360959062099 3.5
    vertex 6.714983213895276 -1.859757782085284 0.0
    vertex 6.714983213895276 -1.859757782085284 3.5
  endloop
endfacet
facet normal -1.0 0.0 0.0
  outer loop
    vertex 6.714983213895276 -1.859757782085284 0.0
    vertex 6.714983213895276 -0.7582360959062099 3.5
    vertex 6.714983213895276 -0.7582360959062099 0.0
  endloop
endfacet
facet normal -0.3420201433256688 0.9396926207859084 0.0
  outer loop
    vertex 6.714983213895276 -0.7582360959062099 3.5
    vertex 7.9641666666666655 -0.3035705019595434 0.0
    vertex 6.714983213895276 -0.7582360959062099 0.0
  endloop
endfacet
facet normal -0.3420201433256688 0.9396926207859084 0.0
  outer loop
    vertex 7.9641666666666655 -0.3035705019595434 0.0
    vertex 6.714983213895276 -0.7582360959062099 3.5
    vertex 7.9641666666666655 -0.3035705019595434 3.5
  endloop
endfacet
facet normal -1.0 0.0 0.0
  outer loop
    vertex 7.9641666666666655 0.30357050195954344 3.5
    vertex 7.9641666666666655 -0.3035705019595434 0.0
    vertex 7.9641666666666655 -0.3035705019595434 3.5
  endloop
endfacet
facet normal -1.0 0.0 0.0
  outer loop
    vertex 7.9641666666666655 -0.3035705019595434 0.0
    vertex 7.9641666666666655 0.30357050195954344 3.5
    vertex 7.9641666666666655 0.30357050195954344 0.0
  endloop
endfacet
facet normal -0.3420201433256688 -0.9396926207859084 -0.0
  outer loop
    vertex 7.9641666666666655 0.30357050195954344 3.5
    vertex 6.714983213895276 0.75823609590621 0.0
    vertex 7.9641666666666655 0.30357050195954344 0.0
  endloop
endfacet
facet normal -0.3420201433256688 -0.9396926207859084 -0.0
  outer loop
    vertex 6.714983213895276 0.75823609590621 0.0
    vertex 7.9641666666666655 0.30357050195954344 3.5
    vertex 6.714983213895276 0.75823609590621 3.5
  endloop
endfacet
facet normal -1.0 0.0 0.0
  outer loop
    vertex 6.714983213895276 1.859757782085284 3.5
    vertex 6.714983213895276 0.75823609590621 0.0
    vertex 6.714983213895276 0.75823609590621 3.5
  endloop
endfacet
facet normal -1.0 0.0 0.0
  outer loop
    vertex 6.714983213895276 0.75823609590621 0.0
    vertex 6.714983213895276 1.859757782085284 3.5
    vertex 6.714983213895276 1.859757782085284 0.0
  endloop
endfacet
facet normal -0.3420201433256688 0.9396926207859084 0.0
  outer loop
    vertex 6.714983213895276 1.859757782085284 3.5
    vertex 7.9641666666666655 2.3144233760319506 0.0
    vertex 6.714983213895276 1.859757782085284 0.0
  endloop
endfacet
facet normal -0.3420201433256688 0.9396926207859084 0.0
  outer loop
    vertex 7.9641666666666655 2.3144233760319506 0.0
    vertex 6.714983213895276 1.859757782085284 3.5
    vertex 7.9641666666666655 2.3144233760319506 3.5
  endloop
endfacet
facet normal -1.0 0.0 0.0
  outer loop
    vertex 7.9641666666666655 2.9215643799510373 3.5
    vertex 7.9641666666666655 2.3144233760319506 0.0
    vertex 7.9641666666666655 2.3144233760319506 3.5
  endloop
endfacet
facet normal -1.0 0.0 0.0
  outer loop
    vertex 7.9641666666666655 2.3144233760319506 0.0
    vertex 7.9641666666666655 2.9215643799510373 3.5
    vertex 7.9641666666666655 2.9215643799510373 0.0
  endloop
endfacet
facet normal -0.342020143325669 -0.9396926207859083 -0.0
  outer loop
    vertex 7.9641666666666655 2.9215643799510373 3.5
    vertex 6.714983213895276 3.376229973897704 0.0
    vertex 7.9641666666666655 2.9215643799510373 0.0
  endloop
endfacet
facet normal -0.342020143325669 -0.9396926207859083 -0.0
  outer loop
    vertex 6.714983213895276 3.376229973897704 0.0
    vertex 7.9641666666666655 2.9215643799510373 3.5
    vertex 6.714983213895276 3.376229973897704 3.5
  endloop
endfacet
facet normal -1.0 0.0 0.0
  outer loop
    vertex 6.714983213895276 4.477751660076778 3.5
    vertex 6.714983213895276 3.376229973897704 0.0
    vertex 6.714983213895276 3.376229973897704 3.5
  endloop
endfacet
facet normal -1.0 0.0 0.0
  outer loop
    vertex 6.714983213895276 3.376229973897704 0.0
    vertex 6.714983213895276 4.477751660076778 3.5
    vertex 6.714983213895276 4.477751660076778 0.0
  endloop
endfacet
facet normal -0.342020143325669 0.9396926207859083 0.0
  outer loop
    vertex 6.714983213895276 4.477751660076778 3.5
    vertex 7.9641666666666655 4.932417254023445 0.0
    vertex 6.714983213895276 4.477751660076778 0.0
  endloop
endfacet
facet normal -0.342020143325669 0.9396926207859083 0.0
  outer loop
    vertex 7.9641666666666655 4.932417254023445 0.0
    vertex 6.714983213895276 4.477751660076778 3.5
    vertex 7.9641666666666655 4.932417254023445 3.5
  endloop
endfacet
facet normal -1.0 0.0 0.0
  outer loop
    vertex 7.9641666666666655 5.539558257942531 3.5
    vertex 7.9641666666666655 4.932417254023445 0.0
    vertex 7.9641666666666655 4.932417254023445 3.5
  endloop
endfacet
facet normal -1.0 0.0 0.0
  outer loop
    vertex 7.9641666666666655 4.932417254023445 0.0
    vertex 7.9641666666666655 5.539558257942531 3.5
    vertex 7.9641666666666655 5.539558257942531 0.0
  endloop
endfacet
facet normal -0.3420201433256686 -0.9396926207859086 -0.0
  outer loop
    vertex 7.9641666666666655 5.539558257942531 3.5
    vertex 6.714983213895276 5.994223851889197 0.0
    vertex 7.9641666666666655 5.539558257942531 0.0
  endloop
endfacet
facet normal -0.3420201433256686 -0.9396926207859086 -0.0
  outer loop
    vertex 6.714983213895276 5.994223851889197 0.0
    vertex 7.9641666666666655 5.539558257942531 3.5
    vertex 6.714983213895276 5.994223851889197 3.5
  endloop
endfacet
facet normal -1.0 0.0 0.0
  outer loop
    vertex 6.714983213895276 7.095745538068272 3.5
    vertex 6.714983213895276 5.994223851889197 0.0
    vertex 6.714983213895276 5.994223851889197 3.5
  endloop
endfacet
facet normal -1.0 0.0 0.0
  outer loop
    vertex 6.714983213895276 5.994223851889197 0.0
    vertex 6.714983213895276 7.095745538068272 3.5
    vertex 6.714983213895276 7.095745538068272 0.0
  endloop
endfacet
facet normal -0.342020143325669 0.9396926207859083 0.0
  outer loop
    vertex 6.714983213895276 7.095745538068272 3.5
    vertex 7.9641666666666655 7.550411132014938 0.0
    vertex 6.714983213895276 7.095745538068272 0.0
  endloop
endfacet
facet normal -0.342020143325669 0.9396926207859083 0.0
  outer loop
    vertex 7.9641666666666655 7.550411132014938 0.0
    vertex 6.714983213895276 7.095745538068272 3.5
    vertex 7.9641666666666655 7.550411132014938 3.5
  endloop
endfacet
facet normal -1.0 0.0 0.0
  outer loop
    vertex 7.9641666666666655 8.157552135934024 3.5
    vertex 7.9641666666666655 7.550411132014938 0.0
    vertex 7.9641666666666655 7.550411132014938 3.5
  endloop
endfacet
facet normal -1.0 0.0 0.0
  outer loop
    vertex 7.9641666666666655 7.550411132014938 0.0
    vertex 7.9641666666666655 8.157552135934024 3.5
    vertex 7.9641666666666655 8.157552135934024 0.0
  endloop
endfacet
facet normal -0.342020143325669 -0.9396926207859083 -0.0
  outer loop
    vertex 7.9641666666666655 8.157552135934024 3.5
    vertex 6.714983213895276 8.612217729880692 0.0
    vertex 7.9641666666666655 8.157552135934024 0.0
  endloop
endfacet
facet normal -0.342020143325669 -0.9396926207859083 -0.0
  outer loop
    vertex 6.714983213895276 8.612217729880692 0.0
    vertex 7.9641666666666655 8.157552135934024 3.5
    vertex 6.714983213895276 8.612217729880692 3.5
  endloop
endfacet
facet normal -1.0 0.0 0.0
  outer loop
    vertex 6.714983213895276 9.713739416059767 3.5
    vertex 6.714983213895276 8.612217729880692 0.0
    vertex 6.714983213895276 8.612217729880692 3.5
  endloop
endfacet
facet normal -1.0 0.0 0.0
  outer loop
    vertex 6.714983213895276 8.612217729880692 0.0
    vertex 6.714983213895276 9.713739416059767 3.5
    vertex 6.714983213895276 9.713739416059767 0.0
  endloop
endfacet
facet normal -0.342020143325669 0.9396926207859083 0.0
  outer loop
    vertex 6.714983213895276 9.713739416059767 3.5
    vertex 7.9641666666666655 10.168405010006433 0.0
    vertex 6.714983213895276 9.713739416059767 0.0
  endloop
endfacet
facet normal -0.342020143325669 0.9396926207859083 0.0
  outer loop
    vertex 7.9641666666666655 10.168405010006433 0.0
    vertex 6.714983213895276 9.713739416059767 3.5
    vertex 7.9641666666666655 10.168405010006433 3.5
  endloop
endfacet
facet normal -1.0 0.0 0.0
  outer loop
    vertex 7.9641666666666655 10.77554601392552 3.5
    vertex 7.9641666666666655 10.168405010006433 0.0
    vertex 7.9641666666666655 10.168405010006433 3.5
  endloop
endfacet
facet normal -1.0 0.0 0.0
  outer loop
    vertex 7.9641666666666655 10.168405010006433 0.0
    vertex 7.9641666666666655 10.77554601392552 3.5
    vertex 7.9641666666666655 10.77554601392552 0.0
  endloop
endfacet
facet normal -0.34202014332566805 -0.9396926207859086 -0.0
  outer loop
    vertex 7.9641666666666655 10.77554601392552 3.5
    vertex 6.714983213895276 11.230211607872185 0.0
    vertex 7.9641666666666655 10.77554601392552 0.0
  endloop
endfacet
facet normal -0.34202014332566805 -0.9396926207859086 -0.0
  outer loop
    vertex 6.714983213895276 11.230211607872185 0.0
    vertex 7.9641666666666655 10.77554601392552 3.5
    vertex 6.714983213895276 11.230211607872185 3.5
  endloop
endfacet
facet normal -1.0 0.0 0.0
  outer loop
    vertex 6.714983213895276 12.33173329405126 3.5
    vertex 6.714983213895276 11.230211607872185 0.0
    vertex 6.714983213895276 11.230211607872185 3.5
  endloop
endfacet
facet normal -1.0 0.0 0.0
  outer loop
    vertex 6.714983213895276 11.230211607872185 0.0
    vertex 6.714983213895276 12.33173329405126 3.5
    vertex 6.714983213895276 12.33173329405126 0.0
  endloop
endfacet
facet normal -0.342020143325669 0.9396926207859083 0.0
  outer loop
    vertex 6.714983213895276 12.33173329405126 3.5
    vertex 7.9641666666666655 12.786398887997928 0.0
    vertex 6.714983213895276 12.33173329405126 0.0
  endloop
endfacet
facet normal -0.342020143325669 0.9396926207859083 0.0
  outer loop
    vertex 7.9641666666666655 12.786398887997928 0.0
    vertex 6.714983213895276 12.33173329405126 3.5
    vertex 7.9641666666666655 12.786398887997928 3.5
  endloop
endfacet
facet normal -1.0 0.0 0.0
  outer loop
    vertex 7.9641666666666655 13.393539891917014 3.5
    vertex 7.9641666666666655 12.786398887997928 0.0
    vertex 7.9641666666666655 12.786398887997928 3.5
  endloop
endfacet
facet normal -1.0 0.0 0.0
  outer loop
    vertex 7.9641666666666655 12.786398887997928 0.0
    vertex 7.9641666666666655 13.393539891917014 3.5
    vertex 7.9641666666666655 13.393539891917014 0.0
  endloop
endfacet
facet normal -0.342020143325669 -0.9396926207859083 -0.0
  outer loop
    vertex 7.9641666666666655 13.393539891917014 3.5
    vertex 6.714983213895276 13.84820548586368 0.0
    vertex 7.9641666666666655 13.393539891917014 0.0
  endloop
endfacet
facet normal -0.342020143325669 -0.9396926207859083 -0.0
  outer loop
    vertex 6.714983213895276 13.84820548586368 0.0
    vertex 7.9641666666666655 13.393539891917014 3.5
    vertex 6.714983213895276 13.84820548586368 3.5
  endloop
endfacet
facet normal -1.0 0.0 0.0
  outer loop
    vertex 6.714983213895276 14.949727172042753 3.5
    vertex 6.714983213895276 13.84820548586368 0.0
    vertex 6.714983213895276 13.84820548586368 3.5
  endloop
endfacet
facet normal -1.0 0.0 0.0
  outer loop
    vertex 6.714983213895276 13.84820548586368 0.0
    vertex 6.714983213895276 14.949727172042753 3.5
    vertex 6.714983213895276 14.949727172042753 0.0
  endloop
endfacet
facet normal -0.342020143325669 0.9396926207859083 0.0
  outer loop
    vertex 6.714983213895276 14.949727172042753 3.5
    vertex 7.9641666666666655 15.404392765989419 0.0
    vertex 6.714983213895276 14.949727172042753 0.0
  endloop
endfacet
facet normal -0.342020143325669 0.9396926207859083 0.0
  outer loop
    vertex 7.9641666666666655 15.404392765989419 0.0
    vertex 6.714983213895276 14.949727172042753 3.5
    vertex 7.9641666666666655 15.404392765989419 3.5
  endloop
endfacet
facet normal -1.0 0.0 0.0
  outer loop
    vertex 7.9641666666666655 16.01153376990851 3.5
    vertex 7.9641666666666655 15.404392765989419 0.0
    vertex 7.9641666666666655 15.404392765989419 3.5
  endloop
endfacet
facet normal -1.0 0.0 0.0
  outer loop
    vertex 7.9641666666666655 15.404392765989419 0.0
    vertex 7.9641666666666655 16.01153376990851 3.5
    vertex 7.9641666666666655 16.01153376990851 0.0
  endloop
endfacet
facet normal -0.342020143325669 -0.9396926207859083 -0.0
  outer loop
    vertex 7.9641666666666655 16.01153376990851 3.5
    vertex 6.714983213895276 16.466199363855175 0.0
    vertex 7.9641666666666655 16.01153376990851 0.0
  endloop
endfacet
facet normal -0.342020143325669 -0.9396926207859083 -0.0
  outer loop
    vertex 6.714983213895276 16.466199363855175 0.0
    vertex 7.9641666666666655 16.01153376990851 3.5
    vertex 6.714983213895276 16.466199363855175 3.5
  endloop
endfacet
facet normal -1.0 0.0 0.0
  outer loop
    vertex 6.714983213895276 17.567721050034248 3.5
    vertex 6.714983213895276 16.466199363855175 0.0
    vertex 6.714983213895276 16.466199363855175 3.5
  endloop
endfacet
facet normal -1.0 0.0 0.0
  outer loop
    vertex 6.714983213895276 16.466199363855175 0.0
    vertex 6.714983213895276 17.567721050034248 3.5
    vertex 6.714983213895276 17.567721050034248 0.0
  endloop
endfacet
facet normal -0.342020143325669 0.9396926207859083 0.0
  outer loop
    vertex 6.714983213895276 17.567721050034248 3.5
    vertex 7.9641666666666655 18.022386643980916 0.0
    vertex 6.714983213895276 17.567721050034248 0.0
  endloop
endfacet
facet normal -0.342020143325669 0.9396926207859083 0.0
  outer loop
    vertex 7.9641666666666655 18.022386643980916 0.0
    vertex 6.714983213895276 17.567721050034248 3.5
    vertex 7.9641666666666655 18.022386643980916 3.5
  endloop
endfacet
facet normal -1.0 0.0 0.0
  outer loop
    vertex 7.9641666666666655 18.6295276479 3.5
    vertex 7.9641666666666655 18.022386643980916 0.0
    vertex 7.9641666666666655 18.022386643980916 3.5
  endloop
endfacet
facet normal -1.0 0.0 0.0
  outer loop
    vertex 7.9641666666666655 18.022386643980916 0.0
    vertex 7.9641666666666655 18.6295276479 3.5
    vertex 7.9641666666666655 18.6295276479 0.0
  endloop
endfacet
facet normal -0.342020143325669 -0.9396926207859083 -0.0
  outer loop
    vertex 7.9641666666666655 18.6295276479 3.5
    vertex 6.714983213895276 19.08419324184667 0.0
    vertex 7.9641666666666655 18.6295276479 0.0
  endloop
endfacet
facet normal -0.342020143325669 -0.9396926207859083 -0.0
  outer loop
    vertex 6.714983213895276 19.08419324184667 0.0
    vertex 7.9641666666666655 18.6295276479 3.5
    vertex 6.714983213895276 19.08419324184667 3.5
  endloop
endfacet
facet normal -1.0 0.0 0.0
  outer loop
    vertex 6.714983213895276 20.185714928025742 3.5
    vertex 6.714983213895276 19.08419324184667 0.0
    vertex 6.714983213895276 19.08419324184667 3.5
  endloop
endfacet
facet normal -1.0 0.0 0.0
  outer loop
    vertex 6.714983213895276 19.08419324184667 0.0
    vertex 6.714983213895276 20.185714928025742 3.5
    vertex 6.714983213895276 20.185714928025742 0.0
  endloop
endfacet
facet normal -0.342020143325669 0.9396926207859083 0.0
  outer loop
    vertex 6.714983213895276 20.185714928025742 3.5
    vertex 7.9641666666666655 20.640380521972407 0.0
    vertex 6.714983213895276 20.185714928025742 0.0
  endloop
endfacet
facet normal -0.342020143325669 0.9396926207859083 0.0
  outer loop
    vertex 7.9641666666666655 20.640380521972407 0.0
    vertex 6.714983213895276 20.185714928025742 3.5
    vertex 7.9641666666666655 20.640380521972407 3.5
  endloop
endfacet
facet normal -1.0 0.0 0.0
  outer loop
    vertex 7.9641666666666655 21.247521525891493 3.5
    vertex 7.9641666666666655 20.640380521972407 0.0
    vertex 7.9641666666666655 20.640380521972407 3.5
  endloop
endfacet
facet normal -1.0 0.0 0.0
  outer loop
    vertex 7.9641666666666655 20.640380521972407 0.0
    vertex 7.9641666666666655 21.247521525891493 3.5
    vertex 7.9641666666666655 21.247521525891493 0.0
  endloop
endfacet
facet normal -0.342020143325669 -0.9396926207859083 -0.0
  outer loop
    vertex 7.9641666666666655 21.247521525891493 3.5
    vertex 6.714983213895276 21.70218711983816 0.0
    vertex 7.9641666666666655 21.247521525891493 0.0
  endloop
endfacet
facet normal -0.342020143325669 -0.9396926207859083 -0.0
  outer loop
    vertex 6.714983213895276 21.70218711983816 0.0
    vertex 7.9641666666666655 21.247521525891493 3.5
    vertex 6.714983213895276 21.70218711983816 3.5
  endloop
endfacet
facet normal -1.0 0.0 0.0
  outer loop
    vertex 6.714983213895276 22.803708806017234 3.5
    vertex 6.714983213895276 21.70218711983816 0.0
    vertex 6.714983213895276 21.70218711983816 3.5
  endloop
endfacet
facet normal -1.0 0.0 0.0
  outer loop
    vertex 6.714983213895276 21.70218711983816 0.0
    vertex 6.714983213895276 22.803708806017234 3.5
    vertex 6.714983213895276 22.803708806017234 0.0
  endloop
endfacet
facet normal -0.342020143325669 0.9396926207859083 0.0
  outer loop
    vertex 6.714983213895276 22.803708806017234 3.5
    vertex 7.9641666666666655 23.258374399963902 0.0
    vertex 6.714983213895276 22.803708806017234 0.0
  endloop
endfacet
facet normal -0.342020143325669 0.9396926207859083 0.0
  outer loop
    vertex 7.9641666666666655 23.258374399963902 0.0
    vertex 6.714983213895276 22.803708806017234 3.5
    vertex 7.9641666666666655 23.258374399963902 3.5
  endloop
endfacet
facet normal -1.0 0.0 0.0
  outer loop
    vertex 7.9641666666666655 23.86551540388299 3.5
    vertex 7.9641666666666655 23.258374399963902 0.0
    vertex 7.9641666666666655 23.258374399963902 3.5
  endloop
endfacet
facet normal -1.0 0.0 0.0
  outer loop
    vertex 7.9641666666666655 23.258374399963902 0.0
    vertex 7.9641666666666655 23.86551540388299 3.5
    vertex 7.9641666666666655 23.86551540388299 0.0
  endloop
endfacet
facet normal -0.342020143325669 -0.9396926207859083 -0.0
  outer loop
    vertex 7.9641666666666655 23.86551540388299 3.5
    vertex 6.714983213895276 24.320180997829656 0.0
    vertex 7.9641666666666655 23.86551540388299 0.0
  endloop
endfacet
facet normal -0.342020143325669 -0.9396926207859083 -0.0
  outer loop
    vertex 6.714983213895276 24.320180997829656 0.0
    vertex 7.9641666666666655 23.86551540388299 3.5
    vertex 6.714983213895276 24.320180997829656 3.5
  endloop
endfacet
facet normal -1.0 0.0 0.0
  outer loop
    vertex 6.714983213895276 25.42170268400873 3.5
    vertex 6.714983213895276 24.320180997829656 0.0
    vertex 6.714983213895276 24.320180997829656 3.5
  endloop
endfacet
facet normal -1.0 0.0 0.0
  outer loop
    vertex 6.714983213895276 24.320180997829656 0.0
    vertex 6.714983213895276 25.42170268400873 3.5
    vertex 6.714983213895276 25.42170268400873 0.0
  endloop
endfacet
facet normal -0.342020143325669 0.9396926207859083 0.0
  outer loop
    vertex 6.714983213895276 25.42170268400873 3.5
    vertex 7.9641666666666655 25.876368277955397 0.0
    vertex 6.714983213895276 25.42170268400873 0.0
  endloop
endfacet
facet normal -0.342020143325669 0.9396926207859083 0.0
  outer loop
    vertex 7.9641666666666655 25.876368277955397 0.0
    vertex 6.714983213895276 25.42170268400873 3.5
    vertex 7.9641666666666655 25.876368277955397 3.5
  endloop
endfacet
facet normal -1.0 0.0 0.0
  outer loop
    vertex 7.9641666666666655 26.483509281874483 3.5
    vertex 7.9641666666666655 25.876368277955397 0.0
    vertex 7.9641666666666655 25.876368277955397 3.5
  endloop
endfacet
facet normal -1.0 0.0 0.0
  outer loop
    vertex 7.9641666666666655 25.876368277955397 0.0
    vertex 7.9641666666666655 26.483509281874483 3.5
    vertex 7.9641666666666655 26.483509281874483 0.0
  endloop
endfacet
facet normal -0.342020143325669 -0.9396926207859083 -0.0
  outer loop
    vertex 7.9641666666666655 26.483509281874483 3.5
    vertex 6.714983213895276 26.93817487582115 0.0
    vertex 7.9641666666666655 26.483509281874483 0.0
  endloop
endfacet
facet normal -0.342020143325669 -0.9396926207859083 -0.0
  outer loop
    vertex 6.714983213895276 26.93817487582115 0.0
    vertex 7.9641666666666655 26.483509281874483 3.5
    vertex 6.714983213895276 26.93817487582115 3.5
  endloop
endfacet
facet normal -1.0 0.0 0.0
  outer loop
    vertex 6.714983213895276 28.039696562000223 3.5
    vertex 6.714983213895276 26.93817487582115 0.0
    vertex 6.714983213895276 26.93817487582115 3.5
  endloop
endfacet
facet normal -1.0 0.0 0.0
  outer loop
    vertex 6.714983213895276 26.93817487582115 0.0
    vertex 6.714983213895276 28.039696562000223 3.5
    vertex 6.714983213895276 28.039696562000223 0.0
  endloop
endfacet
facet normal -0.342020143325669 0.9396926207859083 0.0
  outer loop
    vertex 6.714983213895276 28.039696562000223 3.5
    vertex 7.9641666666666655 28.49436215594689 0.0
    vertex 6.714983213895276 28.039696562000223 0.0
  endloop
endfacet
facet normal -0.342020143325669 0.9396926207859083 0.0
  outer loop
    vertex 7.9641666666666655 28.49436215594689 0.0
    vertex 6.714983213895276 28.039696562000223 3.5
    vertex 7.9641666666666655 28.49436215594689 3.5
  endloop
endfacet
facet normal 0.0 1.0 0.0
  outer loop
    vertex 7.9641666666666655 28.49436215594689 3.5
    vertex 12.0 28.49436215594689 0.0
    vertex 7.9641666666666655 28.49436215594689 0.0
  endloop
endfacet
facet normal 0.0 1.0 0.0
  outer loop
    vertex 12.0 28.49436215594689 0.0
    vertex 7.9641666666666655 28.49436215594689 3.5
    vertex 12.0 28.49436215594689 3.5
  endloop
endfacet
facet normal 1.0 0.0 0.0
  outer loop
    vertex 12.0 28.49436215594689 0.0
    vertex 12.0 -2.3144233760319506 3.5
    vertex 12.0 -2.3144233760319506 0.0
  endloop
endfacet
facet normal 1.0 0.0 0.0
  outer loop
    vertex 12.0 -2.3144233760319506 3.5
    vertex 12.0 28.49436215594689 0.0
    vertex 12.0 28.49436215594689 3.5
  endloop
endfacet
facet normal 0.0 -1.0 0.0
  outer loop
    vertex 12.0 -2.3144233760319506 3.5
    vertex 7.9641666666666655 -2.3144233760319506 0.0
    vertex 12.0 -2.3144233760319506 0.0
  endloop
endfacet
facet normal 0.0 -1.0 0.0
  outer loop
    vertex 7.9641666666666655 -2.3144233760319506 0.0
    vertex 12.0 -2.3144233760319506 3.5
    vertex 7.9641666666666655 -2.3144233760319506 3.5
  endloop
endfacet
endsolid задвижка
