solid задвижка_2
facet normal 6.807253173844333e-15 0.0 -1.0
  outer loop
    vertex 3.500000000000095 16.999999999999993 2.382538610845581e-14
    vertex 0.0 0.0 0.0
    vertex 0.0 16.999999999999993 0.0
  endloop
endfacet
facet normal 6.807253173844333e-15 0.0 -1.0
  outer loop
    vertex 0.0 0.0 0.0
    vertex 3.500000000000095 16.999999999999993 2.382538610845581e-14
    vertex 3.500000000000095 0.0 2.382538610845581e-14
  endloop
endfacet
facet normal 0.0 -1.0 0.0
  outer loop
    vertex 28.50000000000008 0.0 9.591216709736722e-14
    vertex 3.500000000000084 0.0 2.500000000000024
    vertex 3.500000000000095 0.0 2.382538610845581e-14
  endloop
endfacet
facet normal 0.0 -1.0 0.0
  outer loop
    vertex 3.500000000000084 0.0 2.500000000000024
    vertex 28.50000000000008 0.0 9.591216709736722e-14
    vertex 28.50000000000008 0.0 2.500000000000096
  endloop
endfacet
facet normal 1.0 -0.0 -0.0
  outer loop
    vertex 28.50000000000008 14.500000000000012 9.591216709736722e-14
    vertex 28.50000000000008 24.500000000000007 2.500000000000087
    vertex 28.50000000000008 14.50000000000001 2.500000000000096
  endloop
endfacet
facet normal 1.0 -0.0 -0.0
  outer loop
    vertex 28.50000000000008 24.500000000000007 2.500000000000087
    vertex 28.50000000000008 14.500000000000012 9.591216709736722e-14
    vertex 28.50000000000008 26.500000000000004 9.591216709736722e-14
  endloop
endfacet
facet normal 1.0 -0.0 -0.0
  outer loop
    vertex 28.50000000000008 24.500000000000007 2.500000000000087
    vertex 28.50000000000008 26.500000000000004 9.591216709736722e-14
    vertex 28.50000000000008 26.19999999999998 12.714983213895298
  endloop
endfacet
facet normal 1.0 -0.0 -0.0
  outer loop
    vertex 28.50000000000008 26.19999999999998 12.714983213895298
    vertex 28.50000000000008 26.500000000000004 9.591216709736722e-14
    vertex 28.50000000000008 26.49999999999999 12.714983213895325
  endloop
endfacet
facet normal 1.0 -0.0 -0.0
  outer loop
    vertex 28.50000000000008 24.500000000000007 2.500000000000087
    vertex 28.50000000000008 26.19999999999998 20.00000000000003
    vertex 28.50000000000008 24.499999999999964 20.00000000000002
  endloop
endfacet
facet normal 1.0 -0.0 -0.0
  outer loop
    vertex 28.50000000000008 26.19999999999998 20.00000000000003
    vertex 28.50000000000008 24.500000000000007 2.500000000000087
    vertex 28.50000000000008 26.19999999999998 12.714983213895298
  endloop
endfacet
facet normal 1.0 -0.0 -0.0
  outer loop
    vertex 28.50000000000008 26.19999999999998 20.00000000000003
    vertex 28.50000000000008 26.19999999999998 12.714983213895298
    vertex 28.50000000000008 26.199999999999992 19.00000000000003
  endloop
endfacet
facet normal 0.0 -1.0 0.0
  outer loop
    vertex 3.500000000000095 0.0 2.382538610845581e-14
    vertex -1.127986593019159e-14 0.0 2.499999999999635
    vertex 0.0 0.0 0.0
  endloop
endfacet
facet normal 0.0 -1.0 0.0
  outer loop
    vertex -1.127986593019159e-14 0.0 2.499999999999635
    vertex 3.500000000000095 0.0 2.382538610845581e-14
    vertex 3.500000000000084 0.0 2.500000000000024
  endloop
endfacet
facet normal -2.5063719641977463e-16 1.0 -3.9637035819038396e-17
  outer loop
    vertex 28.50000000000008 14.50000000000001 2.500000000000096
    vertex 32.00000000000013 14.500000000000012 1.6203705044404157e-13
    vertex 28.50000000000008 14.500000000000012 9.591216709736722e-14
  endloop
endfacet
facet normal -2.5063719641977463e-16 1.0 -3.9637035819038396e-17
  outer loop
    vertex 32.00000000000013 14.500000000000012 1.6203705044404157e-13
    vertex 28.50000000000008 14.50000000000001 2.500000000000096
    vertex 32.00000000000139 14.500000000000012 14.499999999997002
  endloop
endfacet
facet normal -2.5063719641977463e-16 1.0 -3.9637035819038396e-17
  outer loop
    vertex 32.00000000000139 14.500000000000012 14.499999999997002
    vertex 28.50000000000008 14.50000000000001 2.500000000000096
    vertex 28.500000000001368 14.500000000000012 14.499999999997373
  endloop
endfacet
facet normal 0.0 -1.0 0.0
  outer loop
    vertex 32.00000000000013 0.0 1.6203705044404157e-13
    vertex 28.50000000000008 0.0 2.500000000000096
    vertex 28.50000000000008 0.0 9.591216709736722e-14
  endloop
endfacet
facet normal 0.0 -1.0 0.0
  outer loop
    vertex 28.50000000000008 0.0 2.500000000000096
    vertex 32.00000000000013 0.0 1.6203705044404157e-13
    vertex 32.00000000000139 0.0 14.499999999997002
  endloop
endfacet
facet normal 0.0 -1.0 0.0
  outer loop
    vertex 28.50000000000008 0.0 2.500000000000096
    vertex 32.00000000000139 0.0 14.499999999997002
    vertex 28.500000000001368 0.0 14.499999999997373
  endloop
endfacet
facet normal 1.0 -0.0 -8.712724028839543e-14
  outer loop
    vertex 32.00000000000013 14.500000000000012 1.6203705044404157e-13
    vertex 32.00000000000139 0.0 14.499999999997002
    vertex 32.00000000000013 0.0 1.6203705044404157e-13
  endloop
endfacet
facet normal 1.0 -0.0 -8.712724028839543e-14
  outer loop
    vertex 32.00000000000139 0.0 14.499999999997002
    vertex 32.00000000000013 14.500000000000012 1.6203705044404157e-13
    vertex 32.00000000000139 14.500000000000012 14.499999999997002
  endloop
endfacet
facet normal 2.883471239556457e-15 -1.4250984555308147e-31 -1.0
  outer loop
    vertex 16.000000000000096 26.500000000000004 5.986877660291152e-14
    vertex 3.500000000000095 16.999999999999993 2.382538610845581e-14
    vertex 3.500000000000095 26.500000000000004 2.382538610845581e-14
  endloop
endfacet
facet normal 2.883471239556457e-15 -1.4250984555308147e-31 -1.0
  outer loop
    vertex 3.500000000000095 16.999999999999993 2.382538610845581e-14
    vertex 16.000000000000096 26.500000000000004 5.986877660291152e-14
    vertex 3.500000000000095 0.0 2.382538610845581e-14
  endloop
endfacet
facet normal 2.883471239556457e-15 -1.4250984555308147e-31 -1.0
  outer loop
    vertex 3.500000000000095 0.0 2.382538610845581e-14
    vertex 16.000000000000096 26.500000000000004 5.986877660291152e-14
    vertex 28.50000000000008 0.0 9.591216709736722e-14
  endloop
endfacet
facet normal 2.883471239556457e-15 -1.4250984555308147e-31 -1.0
  outer loop
    vertex 28.50000000000008 0.0 9.591216709736722e-14
    vertex 16.000000000000096 26.500000000000004 5.986877660291152e-14
    vertex 28.50000000000008 26.500000000000004 9.591216709736722e-14
  endloop
endfacet
facet normal 2.883471239556457e-15 -1.4250984555308147e-31 -1.0
  outer loop
    vertex 28.50000000000008 0.0 9.591216709736722e-14
    vertex 28.50000000000008 26.500000000000004 9.591216709736722e-14
    vertex 28.50000000000008 14.500000000000012 9.591216709736722e-14
  endloop
endfacet
facet normal 1.8892823813335288e-14 0.0 -1.0
  outer loop
    vertex 32.00000000000013 14.500000000000012 1.6203705044404157e-13
    vertex 28.50000000000008 0.0 9.591216709736722e-14
    vertex 28.50000000000008 14.500000000000012 9.591216709736722e-14
  endloop
endfacet
facet normal 1.8892823813335288e-14 0.0 -1.0
  outer loop
    vertex 28.50000000000008 0.0 9.591216709736722e-14
    vertex 32.00000000000013 14.500000000000012 1.6203705044404157e-13
    vertex 32.00000000000013 0.0 1.6203705044404157e-13
  endloop
endfacet
facet normal 1.0 -0.0 -0.0
  outer loop
    vertex 28.50000000000008 14.500000000000012 9.591216709736722e-14
    vertex 28.50000000000008 0.0 2.500000000000096
    vertex 28.50000000000008 0.0 9.591216709736722e-14
  endloop
endfacet
facet normal 1.0 -0.0 -0.0
  outer loop
    vertex 28.50000000000008 0.0 2.500000000000096
    vertex 28.50000000000008 14.500000000000012 9.591216709736722e-14
    vertex 28.50000000000008 14.50000000000001 2.500000000000096
  endloop
endfacet
facet normal -8.339043741248556e-14 1.2161105455987822e-14 1.0
  outer loop
    vertex -1.8128355959238775e-13 9.000000000000027 4.499999999999844
    vertex 3.499999999999903 14.500000000000078 4.50000000000006
    vertex -1.8732634491213427e-13 14.500000000000078 4.499999999999665
  endloop
endfacet
facet normal -8.339043741248556e-14 1.2161105455987822e-14 1.0
  outer loop
    vertex 3.499999999999903 14.500000000000078 4.50000000000006
    vertex -1.8128355959238775e-13 9.000000000000027 4.499999999999844
    vertex 3.499999999999914 9.000000000000027 4.5000000000000355
  endloop
endfacet
facet normal -6.788889053528294e-28 -1.0 1.2219854757707554e-14
  outer loop
    vertex 3.500000000000084 9.000000000000005 2.500000000000024
    vertex -1.8128355959238775e-13 9.000000000000027 4.499999999999844
    vertex -1.127986593019159e-14 9.000000000000005 2.4999999999998295
  endloop
endfacet
facet normal -6.788889053528294e-28 -1.0 1.2219854757707554e-14
  outer loop
    vertex -1.8128355959238775e-13 9.000000000000027 4.499999999999844
    vertex 3.500000000000084 9.000000000000005 2.500000000000024
    vertex 3.499999999999914 9.000000000000027 4.5000000000000355
  endloop
endfacet
facet normal 1.0 -7.425169897587601e-30 8.365900564892096e-14
  outer loop
    vertex 3.5000000000000733 14.50000000000005 2.5000000000000524
    vertex 3.499999999999914 9.000000000000027 4.5000000000000355
    vertex 3.500000000000084 9.000000000000005 2.500000000000024
  endloop
endfacet
facet normal 1.0 -7.425169897587601e-30 8.365900564892096e-14
  outer loop
    vertex 3.499999999999914 9.000000000000027 4.5000000000000355
    vertex 3.5000000000000733 14.50000000000005 2.5000000000000524
    vertex 3.499999999999903 14.500000000000078 4.50000000000006
  endloop
endfacet
facet normal 1.0635302162752004e-13 -0.0 1.0
  outer loop
    vertex 32.00000000000139 0.0 14.499999999997002
    vertex 28.500000000001368 14.500000000000012 14.499999999997373
    vertex 28.500000000001368 0.0 14.499999999997373
  endloop
endfacet
facet normal 1.0635302162752004e-13 -0.0 1.0
  outer loop
    vertex 28.500000000001368 14.500000000000012 14.499999999997373
    vertex 32.00000000000139 0.0 14.499999999997002
    vertex 32.00000000000139 14.500000000000012 14.499999999997002
  endloop
endfacet
facet normal -1.0 5.119294905114647e-30 1.0715872633684442e-13
  outer loop
    vertex 28.500000000001368 14.500000000000012 14.499999999997373
    vertex 28.50000000000008 0.0 2.500000000000096
    vertex 28.500000000001368 0.0 14.499999999997373
  endloop
endfacet
facet normal -1.0 5.119294905114647e-30 1.0715872633684442e-13
  outer loop
    vertex 28.50000000000008 0.0 2.500000000000096
    vertex 28.500000000001368 14.500000000000012 14.499999999997373
    vertex 28.50000000000008 14.50000000000001 2.500000000000096
  endloop
endfacet
facet normal -2.309313020928023e-15 -3.123524231142043e-15 1.0
  outer loop
    vertex -1.127986593019159e-14 0.0 2.499999999999635
    vertex -19.999999999999993 32.000000000000014 2.500000000000046
    vertex -19.999999999999993 -1.4542552832924368e-15 2.500000000000035
  endloop
endfacet
facet normal -2.309313020928023e-15 -3.123524231142043e-15 1.0
  outer loop
    vertex -19.999999999999993 32.000000000000014 2.500000000000046
    vertex -1.127986593019159e-14 0.0 2.499999999999635
    vertex -9.919891946736559e-14 14.500000000000078 2.500000000000031
  endloop
endfacet
facet normal -2.309313020928023e-15 -3.123524231142043e-15 1.0
  outer loop
    vertex -9.919891946736559e-14 14.500000000000078 2.500000000000031
    vertex -1.127986593019159e-14 0.0 2.499999999999635
    vertex -1.127986593019159e-14 9.000000000000005 2.4999999999998295
  endloop
endfacet
facet normal -2.309313020928023e-15 -3.123524231142043e-15 1.0
  outer loop
    vertex 28.50000000000008 0.0 2.500000000000096
    vertex 3.500000000000084 9.000000000000005 2.500000000000024
    vertex 3.500000000000084 0.0 2.500000000000024
  endloop
endfacet
facet normal -2.309313020928023e-15 -3.123524231142043e-15 1.0
  outer loop
    vertex 3.500000000000084 9.000000000000005 2.500000000000024
    vertex 28.50000000000008 0.0 2.500000000000096
    vertex 3.5000000000000915 30.30000000000005 2.500000000000021
  endloop
endfacet
facet normal -2.309313020928023e-15 -3.123524231142043e-15 1.0
  outer loop
    vertex 3.5000000000000915 30.30000000000005 2.500000000000021
    vertex 28.50000000000008 0.0 2.500000000000096
    vertex 5.50000000000009 30.000000000000014 2.5000000000000226
  endloop
endfacet
facet normal -2.309313020928023e-15 -3.123524231142043e-15 1.0
  outer loop
    vertex 5.50000000000009 30.000000000000014 2.5000000000000226
    vertex 28.50000000000008 0.0 2.500000000000096
    vertex 16.000000000000096 26.500000000000004 2.5000000000000777
  endloop
endfacet
facet normal -2.309313020928023e-15 -3.123524231142043e-15 1.0
  outer loop
    vertex 5.50000000000009 30.000000000000014 2.5000000000000226
    vertex 16.000000000000096 26.500000000000004 2.5000000000000777
    vertex 15.982636000000094 30.000000000000018 2.5000000000000244
  endloop
endfacet
facet normal -2.309313020928023e-15 -3.123524231142043e-15 1.0
  outer loop
    vertex 16.000000000000096 26.500000000000004 2.5000000000000777
    vertex 28.50000000000008 0.0 2.500000000000096
    vertex 21.500000000000075 24.500000000000007 2.5000000000000777
  endloop
endfacet
facet normal -2.309313020928023e-15 -3.123524231142043e-15 1.0
  outer loop
    vertex 21.500000000000075 24.500000000000007 2.5000000000000777
    vertex 28.50000000000008 0.0 2.500000000000096
    vertex 28.50000000000008 24.500000000000007 2.500000000000087
  endloop
endfacet
facet normal -2.309313020928023e-15 -3.123524231142043e-15 1.0
  outer loop
    vertex 28.50000000000008 24.500000000000007 2.500000000000087
    vertex 28.50000000000008 0.0 2.500000000000096
    vertex 28.50000000000008 14.50000000000001 2.500000000000096
  endloop
endfacet
facet normal -2.309313020928023e-15 -3.123524231142043e-15 1.0
  outer loop
    vertex 21.500000000000075 26.500000000000004 2.5000000000000777
    vertex 16.000000000000096 26.500000000000004 2.5000000000000777
    vertex 21.500000000000075 24.500000000000007 2.5000000000000777
  endloop
endfacet
facet normal -2.309313020928023e-15 -3.123524231142043e-15 1.0
  outer loop
    vertex 5.5000000000000915 30.30000000000005 2.500000000000022
    vertex 3.5000000000000915 30.30000000000005 2.500000000000021
    vertex 5.50000000000009 30.000000000000014 2.5000000000000226
  endloop
endfacet
facet normal -2.309313020928023e-15 -3.123524231142043e-15 1.0
  outer loop
    vertex -9.919891946736559e-14 14.500000000000078 2.500000000000031
    vertex 3.500000000000095 32.000000000000014 2.5000000000000573
    vertex -19.999999999999993 32.000000000000014 2.500000000000046
  endloop
endfacet
facet normal -2.309313020928023e-15 -3.123524231142043e-15 1.0
  outer loop
    vertex 3.500000000000095 32.000000000000014 2.5000000000000573
    vertex -9.919891946736559e-14 14.500000000000078 2.500000000000031
    vertex 3.5000000000000915 30.30000000000005 2.500000000000021
  endloop
endfacet
facet normal -2.309313020928023e-15 -3.123524231142043e-15 1.0
  outer loop
    vertex 3.5000000000000915 30.30000000000005 2.500000000000021
    vertex -9.919891946736559e-14 14.500000000000078 2.500000000000031
    vertex 3.5000000000000733 14.50000000000005 2.5000000000000524
  endloop
endfacet
facet normal -2.309313020928023e-15 -3.123524231142043e-15 1.0
  outer loop
    vertex 3.5000000000000915 30.30000000000005 2.500000000000021
    vertex 3.5000000000000733 14.50000000000005 2.5000000000000524
    vertex 3.500000000000084 9.000000000000005 2.500000000000024
  endloop
endfacet
facet normal 2.8834712395564587e-15 0.0 -1.0
  outer loop
    vertex 28.50000000000008 30.000000000000018 9.591216709736722e-14
    vertex 16.000000000000096 26.500000000000004 5.986877660291152e-14
    vertex 16.000000000000096 30.000000000000018 5.986877660291152e-14
  endloop
endfacet
facet normal 2.8834712395564587e-15 0.0 -1.0
  outer loop
    vertex 16.000000000000096 26.500000000000004 5.986877660291152e-14
    vertex 28.50000000000008 30.000000000000018 9.591216709736722e-14
    vertex 28.50000000000008 26.500000000000004 9.591216709736722e-14
  endloop
endfacet
facet normal 1.0 -0.0 -0.0
  outer loop
    vertex 28.50000000000008 26.500000000000004 9.591216709736722e-14
    vertex 28.50000000000008 30.000000000000007 12.714983213895326
    vertex 28.50000000000008 26.49999999999999 12.714983213895325
  endloop
endfacet
facet normal 1.0 -0.0 -0.0
  outer loop
    vertex 28.50000000000008 30.000000000000007 12.714983213895326
    vertex 28.50000000000008 26.500000000000004 9.591216709736722e-14
    vertex 28.50000000000008 30.000000000000018 9.591216709736722e-14
  endloop
endfacet
facet normal 2.213074918878427e-05 0.00022482793902385442 0.9999999744813135
  outer loop
    vertex 28.50000000000008 26.19999999999998 12.714983213895298
    vertex 21.500000000000075 26.500000000000004 12.71498321389531
    vertex 21.500000000000075 26.19999999999998 12.714983213895287
  endloop
endfacet
facet normal 2.213074918878427e-05 0.00022482793902385442 0.9999999744813135
  outer loop
    vertex 16.000000000000096 30.000000000000007 12.714983213895326
    vertex 11.916905000000094 30.30000000000003 12.714983213895321
    vertex 11.916905000000094 30.000000000000007 12.714983213895326
  endloop
endfacet
facet normal 2.213074918878427e-05 0.00022482793902385442 0.9999999744813135
  outer loop
    vertex 11.916905000000094 30.30000000000003 12.714983213895321
    vertex 16.000000000000096 30.000000000000007 12.714983213895326
    vertex 28.50000000000008 30.30000000000003 12.714983213895326
  endloop
endfacet
facet normal 2.213074918878427e-05 0.00022482793902385442 0.9999999744813135
  outer loop
    vertex 28.50000000000008 30.30000000000003 12.714983213895326
    vertex 16.000000000000096 30.000000000000007 12.714983213895326
    vertex 21.497537331775824 30.013637034032726 12.710310703122166
  endloop
endfacet
facet normal 2.213074918878427e-05 0.00022482793902385442 0.9999999744813135
  outer loop
    vertex 28.50000000000008 30.30000000000003 12.714983213895326
    vertex 21.497537331775824 30.013637034032726 12.710310703122166
    vertex 21.500000000000075 26.500000000000004 12.71498321389531
  endloop
endfacet
facet normal 2.213074918878427e-05 0.00022482793902385442 0.9999999744813135
  outer loop
    vertex 28.50000000000008 30.30000000000003 12.714983213895326
    vertex 21.500000000000075 26.500000000000004 12.71498321389531
    vertex 28.50000000000008 26.19999999999998 12.714983213895298
  endloop
endfacet
facet normal 2.213074918878427e-05 0.00022482793902385442 0.9999999744813135
  outer loop
    vertex 28.50000000000008 30.30000000000003 12.714983213895326
    vertex 28.50000000000008 26.19999999999998 12.714983213895298
    vertex 28.50000000000008 26.49999999999999 12.714983213895325
  endloop
endfacet
facet normal 2.213074918878427e-05 0.00022482793902385442 0.9999999744813135
  outer loop
    vertex 28.50000000000008 30.30000000000003 12.714983213895326
    vertex 28.50000000000008 26.49999999999999 12.714983213895325
    vertex 28.50000000000008 30.000000000000007 12.714983213895326
  endloop
endfacet
facet normal -9.623412263139949e-17 1.0 6.655182556884451e-17
  outer loop
    vertex 3.5000000000000964 32.000000000000014 20.000000000000036
    vertex 5.500000000000094 32.00000000000001 12.714983213895321
    vertex 3.500000000000095 32.00000000000001 12.714983213895321
  endloop
endfacet
facet normal -9.623412263139949e-17 1.0 6.655182556884451e-17
  outer loop
    vertex 5.500000000000094 32.00000000000001 12.714983213895321
    vertex 3.5000000000000964 32.000000000000014 20.000000000000036
    vertex 11.916905000000094 32.000000000000014 12.714983213895321
  endloop
endfacet
facet normal -9.623412263139949e-17 1.0 6.655182556884451e-17
  outer loop
    vertex 5.50000000000009 32.000000000000014 4.290000000000041
    vertex 28.50000000000008 32.000000000000014 7.396860901565099e-14
    vertex 5.50000000000009 32.000000000000014 7.396860901565099e-14
  endloop
endfacet
facet normal -9.623412263139949e-17 1.0 6.655182556884451e-17
  outer loop
    vertex 28.50000000000008 32.000000000000014 7.396860901565099e-14
    vertex 5.50000000000009 32.000000000000014 4.290000000000041
    vertex 11.916905000000094 32.000000000000014 4.290000000000041
  endloop
endfacet
facet normal -9.623412263139949e-17 1.0 6.655182556884451e-17
  outer loop
    vertex 28.50000000000008 32.000000000000014 7.396860901565099e-14
    vertex 11.916905000000094 32.000000000000014 4.290000000000041
    vertex 28.50000000000008 32.000000000000014 20.000000000000043
  endloop
endfacet
facet normal -9.623412263139949e-17 1.0 6.655182556884451e-17
  outer loop
    vertex 28.50000000000008 32.000000000000014 20.000000000000043
    vertex 11.916905000000094 32.000000000000014 4.290000000000041
    vertex 11.916905000000094 32.000000000000014 12.714983213895321
  endloop
endfacet
facet normal -9.623412263139949e-17 1.0 6.655182556884451e-17
  outer loop
    vertex 28.50000000000008 32.000000000000014 20.000000000000043
    vertex 11.916905000000094 32.000000000000014 12.714983213895321
    vertex 3.5000000000000964 32.000000000000014 20.000000000000036
  endloop
endfacet
facet normal 1.0 -0.0 -0.0
  outer loop
    vertex 28.50000000000008 30.000000000000018 9.591216709736722e-14
    vertex 28.50000000000008 30.30000000000003 12.714983213895326
    vertex 28.50000000000008 30.000000000000007 12.714983213895326
  endloop
endfacet
facet normal 1.0 -0.0 -0.0
  outer loop
    vertex 28.50000000000008 30.30000000000003 12.714983213895326
    vertex 28.50000000000008 30.000000000000018 9.591216709736722e-14
    vertex 28.50000000000008 32.000000000000014 7.396860901565099e-14
  endloop
endfacet
facet normal 1.0 -0.0 -0.0
  outer loop
    vertex 28.50000000000008 30.30000000000003 12.714983213895326
    vertex 28.50000000000008 30.30000000000002 20.000000000000043
    vertex 28.50000000000008 30.30000000000002 19.000000000000043
  endloop
endfacet
facet normal 1.0 -0.0 -0.0
  outer loop
    vertex 28.50000000000008 30.30000000000002 20.000000000000043
    vertex 28.50000000000008 30.30000000000003 12.714983213895326
    vertex 28.50000000000008 32.000000000000014 20.000000000000043
  endloop
endfacet
facet normal 1.0 -0.0 -0.0
  outer loop
    vertex 28.50000000000008 32.000000000000014 20.000000000000043
    vertex 28.50000000000008 30.30000000000003 12.714983213895326
    vertex 28.50000000000008 32.000000000000014 7.396860901565099e-14
  endloop
endfacet
facet normal 1.3534477623882594e-15 3.5136431755786005e-15 -1.0
  outer loop
    vertex 28.50000000000008 32.000000000000014 7.396860901565099e-14
    vertex 5.500000000000094 30.30000000000005 2.4602542225693443e-14
    vertex 5.50000000000009 32.000000000000014 7.396860901565099e-14
  endloop
endfacet
facet normal 1.3534477623882594e-15 3.5136431755786005e-15 -1.0
  outer loop
    vertex 5.500000000000094 30.30000000000005 2.4602542225693443e-14
    vertex 28.50000000000008 32.000000000000014 7.396860901565099e-14
    vertex 16.000000000000096 30.000000000000018 5.986877660291152e-14
  endloop
endfacet
facet normal 1.3534477623882594e-15 3.5136431755786005e-15 -1.0
  outer loop
    vertex 16.000000000000096 30.000000000000018 5.986877660291152e-14
    vertex 28.50000000000008 32.000000000000014 7.396860901565099e-14
    vertex 28.50000000000008 30.000000000000018 9.591216709736722e-14
  endloop
endfacet
facet normal 1.3534477623882594e-15 3.5136431755786005e-15 -1.0
  outer loop
    vertex 16.000000000000096 30.000000000000018 5.986877660291152e-14
    vertex 5.50000000000009 30.000000000000018 5.986877660291152e-14
    vertex 5.500000000000094 30.30000000000005 2.4602542225693443e-14
  endloop
endfacet
facet normal 3.1602475547633467e-31 -1.0 -1.7947232782464126e-15
  outer loop
    vertex 28.50000000000008 30.30000000000003 12.714983213895326
    vertex 5.500000000000096 30.30000000000004 12.714983213895321
    vertex 11.916905000000094 30.30000000000003 12.714983213895321
  endloop
endfacet
facet normal 3.1602475547633467e-31 -1.0 -1.7947232782464126e-15
  outer loop
    vertex 5.500000000000096 30.30000000000004 12.714983213895321
    vertex 28.50000000000008 30.30000000000003 12.714983213895326
    vertex 3.5000000000000964 30.30000000000003 12.714983213895321
  endloop
endfacet
facet normal 3.1602475547633467e-31 -1.0 -1.7947232782464126e-15
  outer loop
    vertex 3.5000000000000964 30.30000000000003 12.714983213895321
    vertex 28.50000000000008 30.30000000000003 12.714983213895326
    vertex 3.500000000000098 30.30000000000002 19.00000000000004
  endloop
endfacet
facet normal 3.1602475547633467e-31 -1.0 -1.7947232782464126e-15
  outer loop
    vertex 3.500000000000098 30.30000000000002 19.00000000000004
    vertex 28.50000000000008 30.30000000000003 12.714983213895326
    vertex 28.50000000000008 30.30000000000002 19.000000000000043
  endloop
endfacet
facet normal -2.169968414311048e-16 -3.3480532963107723e-15 1.0
  outer loop
    vertex 16.00000000000009 26.19999999999998 20.000000000000025
    vertex 3.500000000000098 30.30000000000002 20.00000000000004
    vertex 3.500000000000098 26.19999999999998 20.00000000000002
  endloop
endfacet
facet normal -2.169968414311048e-16 -3.3480532963107723e-15 1.0
  outer loop
    vertex 21.50000000000007 24.499999999999964 20.000000000000018
    vertex 16.00000000000009 26.19999999999998 20.000000000000025
    vertex 16.00000000000009 24.499999999999964 20.000000000000014
  endloop
endfacet
facet normal -2.169968414311048e-16 -3.3480532963107723e-15 1.0
  outer loop
    vertex 3.500000000000098 30.30000000000002 20.00000000000004
    vertex 28.50000000000008 32.000000000000014 20.000000000000043
    vertex 3.5000000000000964 32.000000000000014 20.000000000000036
  endloop
endfacet
facet normal -2.169968414311048e-16 -3.3480532963107723e-15 1.0
  outer loop
    vertex 28.50000000000008 32.000000000000014 20.000000000000043
    vertex 3.500000000000098 30.30000000000002 20.00000000000004
    vertex 16.00000000000009 26.19999999999998 20.000000000000025
  endloop
endfacet
facet normal -2.169968414311048e-16 -3.3480532963107723e-15 1.0
  outer loop
    vertex 28.50000000000008 32.000000000000014 20.000000000000043
    vertex 16.00000000000009 26.19999999999998 20.000000000000025
    vertex 21.50000000000007 24.499999999999964 20.000000000000018
  endloop
endfacet
facet normal -2.169968414311048e-16 -3.3480532963107723e-15 1.0
  outer loop
    vertex 28.50000000000008 32.000000000000014 20.000000000000043
    vertex 21.50000000000007 24.499999999999964 20.000000000000018
    vertex 28.50000000000008 24.499999999999964 20.00000000000002
  endloop
endfacet
facet normal -2.169968414311048e-16 -3.3480532963107723e-15 1.0
  outer loop
    vertex 28.50000000000008 32.000000000000014 20.000000000000043
    vertex 28.50000000000008 24.499999999999964 20.00000000000002
    vertex 28.50000000000008 26.19999999999998 20.00000000000003
  endloop
endfacet
facet normal -2.169968414311048e-16 -3.3480532963107723e-15 1.0
  outer loop
    vertex 28.50000000000008 32.000000000000014 20.000000000000043
    vertex 28.50000000000008 26.19999999999998 20.00000000000003
    vertex 28.50000000000008 30.30000000000002 20.000000000000043
  endloop
endfacet
facet normal 1.0 -0.0 -0.0
  outer loop
    vertex 28.50000000000008 26.199999999999992 19.00000000000003
    vertex 28.50000000000008 30.30000000000002 20.000000000000043
    vertex 28.50000000000008 26.19999999999998 20.00000000000003
  endloop
endfacet
facet normal 1.0 -0.0 -0.0
  outer loop
    vertex 28.50000000000008 30.30000000000002 20.000000000000043
    vertex 28.50000000000008 26.199999999999992 19.00000000000003
    vertex 28.50000000000008 30.30000000000002 19.000000000000043
  endloop
endfacet
facet normal -1.0 0.0 0.0
  outer loop
    vertex 3.500000000000098 30.30000000000002 20.00000000000004
    vertex 3.500000000000098 26.199999999999992 19.000000000000018
    vertex 3.500000000000098 26.19999999999998 20.00000000000002
  endloop
endfacet
facet normal -1.0 0.0 0.0
  outer loop
    vertex 3.500000000000098 26.199999999999992 19.000000000000018
    vertex 3.500000000000098 30.30000000000002 20.00000000000004
    vertex 3.500000000000098 30.30000000000002 19.00000000000004
  endloop
endfacet
facet normal 0.0 0.0 -1.0
  outer loop
    vertex 11.916905000000094 32.000000000000014 12.714983213895321
    vertex 5.500000000000096 30.30000000000004 12.714983213895321
    vertex 5.500000000000094 32.00000000000001 12.714983213895321
  endloop
endfacet
facet normal 0.0 0.0 -1.0
  outer loop
    vertex 5.500000000000096 30.30000000000004 12.714983213895321
    vertex 11.916905000000094 32.000000000000014 12.714983213895321
    vertex 11.916905000000094 30.30000000000003 12.714983213895321
  endloop
endfacet
facet normal -1.0 -8.64291633947803e-16 1.9945216170770614e-16
  outer loop
    vertex 3.5000000000000964 32.000000000000014 20.000000000000036
    vertex 3.500000000000098 30.30000000000002 19.00000000000004
    vertex 3.500000000000098 30.30000000000002 20.00000000000004
  endloop
endfacet
facet normal -1.0 -8.64291633947803e-16 1.9945216170770614e-16
  outer loop
    vertex 3.500000000000098 30.30000000000002 19.00000000000004
    vertex 3.5000000000000964 32.000000000000014 20.000000000000036
    vertex 3.5000000000000964 30.30000000000003 12.714983213895321
  endloop
endfacet
facet normal -1.0 -8.64291633947803e-16 1.9945216170770614e-16
  outer loop
    vertex 3.5000000000000964 30.30000000000003 12.714983213895321
    vertex 3.5000000000000964 32.000000000000014 20.000000000000036
    vertex 3.500000000000095 32.00000000000001 12.714983213895321
  endloop
endfacet
facet normal -1.9238327542190453e-15 1.0 1.4700033247076357e-16
  outer loop
    vertex 3.500000000000095 32.000000000000014 2.5000000000000573
    vertex 5.50000000000009 32.000000000000014 7.396860901565099e-14
    vertex 3.500000000000095 32.0 2.382538610845581e-14
  endloop
endfacet
facet normal -1.9238327542190453e-15 1.0 1.4700033247076357e-16
  outer loop
    vertex 5.50000000000009 32.000000000000014 7.396860901565099e-14
    vertex 3.500000000000095 32.000000000000014 2.5000000000000573
    vertex 5.50000000000009 32.000000000000014 4.290000000000041
  endloop
endfacet
facet normal -1.9238327542190453e-15 1.0 1.4700033247076357e-16
  outer loop
    vertex 5.50000000000009 32.000000000000014 4.290000000000041
    vertex 3.500000000000095 32.000000000000014 2.5000000000000573
    vertex 3.500000000000095 32.00000000000001 12.714983213895321
  endloop
endfacet
facet normal -1.9238327542190453e-15 1.0 1.4700033247076357e-16
  outer loop
    vertex 5.50000000000009 32.000000000000014 4.290000000000041
    vertex 3.500000000000095 32.00000000000001 12.714983213895321
    vertex 5.500000000000094 32.00000000000001 12.714983213895321
  endloop
endfacet
facet normal 1.2888301537117242e-14 1.4705557033528036e-14 -1.0
  outer loop
    vertex 3.500000000000095 32.0 2.382538610845581e-14
    vertex 5.500000000000094 30.30000000000005 2.4602542225693443e-14
    vertex 3.5000000000000946 30.30000000000005 2.3192558984419496e-14
  endloop
endfacet
facet normal 1.2888301537117242e-14 1.4705557033528036e-14 -1.0
  outer loop
    vertex 5.500000000000094 30.30000000000005 2.4602542225693443e-14
    vertex 3.500000000000095 32.0 2.382538610845581e-14
    vertex 5.50000000000009 32.000000000000014 7.396860901565099e-14
  endloop
endfacet
facet normal 2.842535688527449e-15 -1.0 -1.6592408908256774e-15
  outer loop
    vertex 5.5000000000000915 30.30000000000005 2.500000000000022
    vertex 3.5000000000000964 30.30000000000003 12.714983213895321
    vertex 3.5000000000000915 30.30000000000005 2.500000000000021
  endloop
endfacet
facet normal 2.842535688527449e-15 -1.0 -1.6592408908256774e-15
  outer loop
    vertex 3.5000000000000964 30.30000000000003 12.714983213895321
    vertex 5.5000000000000915 30.30000000000005 2.500000000000022
    vertex 5.500000000000091 30.30000000000005 4.290000000000041
  endloop
endfacet
facet normal 2.842535688527449e-15 -1.0 -1.6592408908256774e-15
  outer loop
    vertex 3.5000000000000964 30.30000000000003 12.714983213895321
    vertex 5.500000000000091 30.30000000000005 4.290000000000041
    vertex 5.500000000000096 30.30000000000004 12.714983213895321
  endloop
endfacet
facet normal 0.0 0.0 -1.0
  outer loop
    vertex 5.500000000000094 32.00000000000001 12.714983213895321
    vertex 3.5000000000000964 30.30000000000003 12.714983213895321
    vertex 3.500000000000095 32.00000000000001 12.714983213895321
  endloop
endfacet
facet normal 0.0 0.0 -1.0
  outer loop
    vertex 3.5000000000000964 30.30000000000003 12.714983213895321
    vertex 5.500000000000094 32.00000000000001 12.714983213895321
    vertex 5.500000000000096 30.30000000000004 12.714983213895321
  endloop
endfacet
facet normal 1.0 8.294019066317515e-16 -5.857508815352463e-16
  outer loop
    vertex 5.500000000000091 30.30000000000005 4.290000000000041
    vertex 5.500000000000094 32.00000000000001 12.714983213895321
    vertex 5.500000000000096 30.30000000000004 12.714983213895321
  endloop
endfacet
facet normal 1.0 8.294019066317515e-16 -5.857508815352463e-16
  outer loop
    vertex 5.500000000000094 32.00000000000001 12.714983213895321
    vertex 5.500000000000091 30.30000000000005 4.290000000000041
    vertex 5.50000000000009 32.000000000000014 4.290000000000041
  endloop
endfacet
facet normal 2.582574537754484e-15 1.1725924988016185e-15 -1.0
  outer loop
    vertex 5.500000000000094 30.30000000000005 2.4602542225693443e-14
    vertex 3.500000000000095 26.500000000000004 2.382538610845581e-14
    vertex 3.5000000000000946 30.30000000000005 2.3192558984419496e-14
  endloop
endfacet
facet normal 2.582574537754484e-15 1.1725924988016185e-15 -1.0
  outer loop
    vertex 3.500000000000095 26.500000000000004 2.382538610845581e-14
    vertex 5.500000000000094 30.30000000000005 2.4602542225693443e-14
    vertex 5.50000000000009 30.000000000000018 5.986877660291152e-14
  endloop
endfacet
facet normal 2.582574537754484e-15 1.1725924988016185e-15 -1.0
  outer loop
    vertex 5.50000000000009 30.000000000000018 5.986877660291152e-14
    vertex 16.000000000000096 26.500000000000004 5.986877660291152e-14
    vertex 3.500000000000095 26.500000000000004 2.382538610845581e-14
  endloop
endfacet
facet normal 2.582574537754484e-15 1.1725924988016185e-15 -1.0
  outer loop
    vertex 16.000000000000096 26.500000000000004 5.986877660291152e-14
    vertex 5.50000000000009 30.000000000000018 5.986877660291152e-14
    vertex 16.000000000000096 30.000000000000018 5.986877660291152e-14
  endloop
endfacet
facet normal 0.0 -1.0 0.0
  outer loop
    vertex 5.500000000000094 30.30000000000005 2.4602542225693443e-14
    vertex 3.5000000000000915 30.30000000000005 2.500000000000021
    vertex 3.5000000000000946 30.30000000000005 2.3192558984419496e-14
  endloop
endfacet
facet normal 0.0 -1.0 0.0
  outer loop
    vertex 3.5000000000000915 30.30000000000005 2.500000000000021
    vertex 5.500000000000094 30.30000000000005 2.4602542225693443e-14
    vertex 5.5000000000000915 30.30000000000005 2.500000000000022
  endloop
endfacet
facet normal 2.4356460150712386e-16 -1.0 -9.300656111096415e-16
  outer loop
    vertex 16.000000000000096 30.000000000000007 12.714983213895326
    vertex 11.916905000000094 30.000000000000014 4.290000000000041
    vertex 15.982636000000094 30.000000000000018 2.5000000000000244
  endloop
endfacet
facet normal 2.4356460150712386e-16 -1.0 -9.300656111096415e-16
  outer loop
    vertex 11.916905000000094 30.000000000000014 4.290000000000041
    vertex 16.000000000000096 30.000000000000007 12.714983213895326
    vertex 11.916905000000094 30.000000000000007 12.714983213895326
  endloop
endfacet
facet normal 2.4356460150712386e-16 -1.0 -9.300656111096415e-16
  outer loop
    vertex 15.982636000000094 30.000000000000018 2.5000000000000244
    vertex 5.50000000000009 30.000000000000014 4.290000000000041
    vertex 5.50000000000009 30.000000000000014 2.5000000000000226
  endloop
endfacet
facet normal 2.4356460150712386e-16 -1.0 -9.300656111096415e-16
  outer loop
    vertex 5.50000000000009 30.000000000000014 4.290000000000041
    vertex 15.982636000000094 30.000000000000018 2.5000000000000244
    vertex 11.916905000000094 30.000000000000014 4.290000000000041
  endloop
endfacet
facet normal -1.0 0.0 0.0
  outer loop
    vertex 11.916905000000094 30.30000000000003 12.714983213895321
    vertex 11.916905000000094 30.000000000000014 4.290000000000041
    vertex 11.916905000000094 30.000000000000007 12.714983213895326
  endloop
endfacet
facet normal -1.0 0.0 0.0
  outer loop
    vertex 11.916905000000094 30.000000000000014 4.290000000000041
    vertex 11.916905000000094 30.30000000000003 12.714983213895321
    vertex 11.916905000000094 32.000000000000014 4.290000000000041
  endloop
endfacet
facet normal -1.0 0.0 0.0
  outer loop
    vertex 11.916905000000094 32.000000000000014 4.290000000000041
    vertex 11.916905000000094 30.30000000000003 12.714983213895321
    vertex 11.916905000000094 32.000000000000014 12.714983213895321
  endloop
endfacet
facet normal -1.0 -5.419545953912919e-16 -2.812541177982908e-16
  outer loop
    vertex 5.50000000000009 32.000000000000014 4.290000000000041
    vertex 5.5000000000000915 30.30000000000005 2.500000000000022
    vertex 5.500000000000091 30.30000000000005 4.290000000000041
  endloop
endfacet
facet normal -1.0 -5.419545953912919e-16 -2.812541177982908e-16
  outer loop
    vertex 5.5000000000000915 30.30000000000005 2.500000000000022
    vertex 5.50000000000009 32.000000000000014 4.290000000000041
    vertex 5.500000000000094 30.30000000000005 2.4602542225693443e-14
  endloop
endfacet
facet normal -1.0 -5.419545953912919e-16 -2.812541177982908e-16
  outer loop
    vertex 5.500000000000094 30.30000000000005 2.4602542225693443e-14
    vertex 5.50000000000009 32.000000000000014 4.290000000000041
    vertex 5.50000000000009 32.000000000000014 7.396860901565099e-14
  endloop
endfacet
facet normal -0.0 -0.0 1.0
  outer loop
    vertex 11.916905000000094 30.000000000000014 4.290000000000041
    vertex 5.500000000000091 30.30000000000005 4.290000000000041
    vertex 5.50000000000009 30.000000000000014 4.290000000000041
  endloop
endfacet
facet normal -0.0 -0.0 1.0
  outer loop
    vertex 5.500000000000091 30.30000000000005 4.290000000000041
    vertex 11.916905000000094 32.000000000000014 4.290000000000041
    vertex 5.50000000000009 32.000000000000014 4.290000000000041
  endloop
endfacet
facet normal -0.0 -0.0 1.0
  outer loop
    vertex 11.916905000000094 32.000000000000014 4.290000000000041
    vertex 5.500000000000091 30.30000000000005 4.290000000000041
    vertex 11.916905000000094 30.000000000000014 4.290000000000041
  endloop
endfacet
facet normal -1.0 1.0574874309553262e-14 -4.229949723821809e-16
  outer loop
    vertex 5.5000000000000915 30.30000000000005 2.500000000000022
    vertex 5.50000000000009 30.000000000000018 5.986877660291152e-14
    vertex 5.50000000000009 30.000000000000014 2.5000000000000226
  endloop
endfacet
facet normal -1.0 1.0574874309553262e-14 -4.229949723821809e-16
  outer loop
    vertex 5.50000000000009 30.000000000000018 5.986877660291152e-14
    vertex 5.5000000000000915 30.30000000000005 2.500000000000022
    vertex 5.500000000000094 30.30000000000005 2.4602542225693443e-14
  endloop
endfacet
facet normal -1.0 -5.117266763589331e-15 -8.024749447319605e-14
  outer loop
    vertex -1.8128355959238775e-13 9.000000000000027 4.499999999999844
    vertex -9.919891946736559e-14 14.500000000000078 2.500000000000031
    vertex -1.127986593019159e-14 9.000000000000005 2.4999999999998295
  endloop
endfacet
facet normal -1.0 -5.117266763589331e-15 -8.024749447319605e-14
  outer loop
    vertex -9.919891946736559e-14 14.500000000000078 2.500000000000031
    vertex -1.8128355959238775e-13 9.000000000000027 4.499999999999844
    vertex -1.8732634491213427e-13 14.500000000000078 4.499999999999665
  endloop
endfacet
facet normal -1.0 5.529346044211595e-16 1.2901376071223472e-16
  outer loop
    vertex 3.500000000000095 32.00000000000001 12.714983213895321
    vertex 3.5000000000000915 30.30000000000005 2.500000000000021
    vertex 3.5000000000000964 30.30000000000003 12.714983213895321
  endloop
endfacet
facet normal -1.0 5.529346044211595e-16 1.2901376071223472e-16
  outer loop
    vertex 3.5000000000000915 30.30000000000005 2.500000000000021
    vertex 3.500000000000095 32.00000000000001 12.714983213895321
    vertex 3.500000000000095 32.000000000000014 2.5000000000000573
  endloop
endfacet
facet normal -8.339043741248556e-14 -1.08098715164336e-14 1.0
  outer loop
    vertex 3.500000000000084 0.0 2.500000000000024
    vertex -1.127986593019159e-14 9.000000000000005 2.4999999999998295
    vertex -1.127986593019159e-14 0.0 2.499999999999635
  endloop
endfacet
facet normal -8.339043741248556e-14 -1.08098715164336e-14 1.0
  outer loop
    vertex -1.127986593019159e-14 9.000000000000005 2.4999999999998295
    vertex 3.500000000000084 0.0 2.500000000000024
    vertex 3.500000000000084 9.000000000000005 2.500000000000024
  endloop
endfacet
facet normal 3.9726221050956684e-16 5.817021133169695e-16 -1.0
  outer loop
    vertex 3.500000000000095 32.0 2.382538610845581e-14
    vertex -19.999999999999996 0.0 0.0
    vertex -19.999999999999996 32.0 1.1912693054227906e-14
  endloop
endfacet
facet normal 3.9726221050956684e-16 5.817021133169695e-16 -1.0
  outer loop
    vertex -19.999999999999996 0.0 0.0
    vertex 3.500000000000095 32.0 2.382538610845581e-14
    vertex 0.0 16.999999999999993 0.0
  endloop
endfacet
facet normal 3.9726221050956684e-16 5.817021133169695e-16 -1.0
  outer loop
    vertex 0.0 16.999999999999993 0.0
    vertex 3.500000000000095 32.0 2.382538610845581e-14
    vertex 3.5000000000000946 30.30000000000005 2.3192558984419496e-14
  endloop
endfacet
facet normal 3.9726221050956684e-16 5.817021133169695e-16 -1.0
  outer loop
    vertex 3.5000000000000946 30.30000000000005 2.3192558984419496e-14
    vertex 3.500000000000095 16.999999999999993 2.382538610845581e-14
    vertex 0.0 16.999999999999993 0.0
  endloop
endfacet
facet normal 3.9726221050956684e-16 5.817021133169695e-16 -1.0
  outer loop
    vertex 3.500000000000095 16.999999999999993 2.382538610845581e-14
    vertex 3.5000000000000946 30.30000000000005 2.3192558984419496e-14
    vertex 3.500000000000095 26.500000000000004 2.382538610845581e-14
  endloop
endfacet
facet normal 3.9726221050956684e-16 5.817021133169695e-16 -1.0
  outer loop
    vertex 0.0 0.0 0.0
    vertex -19.999999999999996 0.0 0.0
    vertex 0.0 16.999999999999993 0.0
  endloop
endfacet
facet normal -1.0 -8.248865707590795e-31 2.255973186038287e-15
  outer loop
    vertex -19.999999999999993 32.000000000000014 2.500000000000046
    vertex -19.999999999999996 0.0 0.0
    vertex -19.999999999999993 -1.4542552832924368e-15 2.500000000000035
  endloop
endfacet
facet normal -1.0 -8.248865707590795e-31 2.255973186038287e-15
  outer loop
    vertex -19.999999999999996 0.0 0.0
    vertex -19.999999999999993 32.000000000000014 2.500000000000046
    vertex -19.999999999999996 32.0 1.1912693054227906e-14
  endloop
endfacet
facet normal 2.228347028477686e-30 1.0 -4.511946372076575e-15
  outer loop
    vertex -19.999999999999993 32.000000000000014 2.500000000000046
    vertex 3.500000000000095 32.0 2.382538610845581e-14
    vertex -19.999999999999996 32.0 1.1912693054227906e-14
  endloop
endfacet
facet normal 2.228347028477686e-30 1.0 -4.511946372076575e-15
  outer loop
    vertex 3.500000000000095 32.0 2.382538610845581e-14
    vertex -19.999999999999993 32.000000000000014 2.500000000000046
    vertex 3.500000000000095 32.000000000000014 2.5000000000000573
  endloop
endfacet
facet normal -1.0 1.244102859947642e-15 -5.639932965095746e-16
  outer loop
    vertex 3.500000000000095 32.000000000000014 2.5000000000000573
    vertex 3.5000000000000946 30.30000000000005 2.3192558984419496e-14
    vertex 3.5000000000000915 30.30000000000005 2.500000000000021
  endloop
endfacet
facet normal -1.0 1.244102859947642e-15 -5.639932965095746e-16
  outer loop
    vertex 3.5000000000000946 30.30000000000005 2.3192558984419496e-14
    vertex 3.500000000000095 32.000000000000014 2.5000000000000573
    vertex 3.500000000000095 32.0 2.382538610845581e-14
  endloop
endfacet
facet normal 3.635638208230802e-17 -1.0 -2.9085105665852975e-16
  outer loop
    vertex -1.127986593019159e-14 0.0 2.499999999999635
    vertex -19.999999999999996 0.0 0.0
    vertex 0.0 0.0 0.0
  endloop
endfacet
facet normal 3.635638208230802e-17 -1.0 -2.9085105665852975e-16
  outer loop
    vertex -19.999999999999996 0.0 0.0
    vertex -1.127986593019159e-14 0.0 2.499999999999635
    vertex -19.999999999999993 -1.4542552832924368e-15 2.500000000000035
  endloop
endfacet
facet normal 1.0749079142837012e-16 1.0 -1.6682997235074964e-15
  outer loop
    vertex 16.00000000000009 26.199999999999992 19.00000000000002
    vertex 21.500000000000075 26.199999999999985 14.502729021461834
    vertex 16.000000000000096 26.199999999999985 14.502729021461834
  endloop
endfacet
facet normal 1.0749079142837012e-16 1.0 -1.6682997235074964e-15
  outer loop
    vertex 21.500000000000075 26.199999999999985 14.502729021461834
    vertex 28.50000000000008 26.19999999999998 12.714983213895298
    vertex 21.500000000000075 26.19999999999998 12.714983213895287
  endloop
endfacet
facet normal 1.0749079142837012e-16 1.0 -1.6682997235074964e-15
  outer loop
    vertex 28.50000000000008 26.19999999999998 12.714983213895298
    vertex 21.500000000000075 26.199999999999985 14.502729021461834
    vertex 28.50000000000008 26.199999999999992 19.00000000000003
  endloop
endfacet
facet normal 1.0749079142837012e-16 1.0 -1.6682997235074964e-15
  outer loop
    vertex 28.50000000000008 26.199999999999992 19.00000000000003
    vertex 21.500000000000075 26.199999999999985 14.502729021461834
    vertex 16.00000000000009 26.199999999999992 19.00000000000002
  endloop
endfacet
facet normal 6.431054453187046e-31 -1.0 -2.5648785493359217e-15
  outer loop
    vertex 21.50000000000007 24.499999999999964 20.000000000000018
    vertex 16.000000000000096 24.49999999999998 14.502729021461828
    vertex 21.500000000000075 24.49999999999998 14.502729021461828
  endloop
endfacet
facet normal 6.431054453187046e-31 -1.0 -2.5648785493359217e-15
  outer loop
    vertex 16.000000000000096 24.49999999999998 14.502729021461828
    vertex 21.50000000000007 24.499999999999964 20.000000000000018
    vertex 16.00000000000009 24.499999999999964 20.000000000000014
  endloop
endfacet
facet normal -1.0 -1.884547618571296e-16 -1.0630272623904526e-15
  outer loop
    vertex 16.00000000000009 26.19999999999998 20.000000000000025
    vertex 16.000000000000096 24.49999999999998 14.502729021461828
    vertex 16.00000000000009 24.499999999999964 20.000000000000014
  endloop
endfacet
facet normal -1.0 -1.884547618571296e-16 -1.0630272623904526e-15
  outer loop
    vertex 16.000000000000096 24.49999999999998 14.502729021461828
    vertex 16.00000000000009 26.19999999999998 20.000000000000025
    vertex 16.000000000000096 26.199999999999985 14.502729021461834
  endloop
endfacet
facet normal -1.0 -1.884547618571296e-16 -1.0630272623904526e-15
  outer loop
    vertex 16.000000000000096 26.199999999999985 14.502729021461834
    vertex 16.00000000000009 26.19999999999998 20.000000000000025
    vertex 16.00000000000009 26.199999999999992 19.00000000000002
  endloop
endfacet
facet normal 2.417114127898681e-15 1.0 -1.0444827311573005e-14
  outer loop
    vertex -1.8732634491213427e-13 14.500000000000078 4.499999999999665
    vertex 3.5000000000000733 14.50000000000005 2.5000000000000524
    vertex -9.919891946736559e-14 14.500000000000078 2.500000000000031
  endloop
endfacet
facet normal 2.417114127898681e-15 1.0 -1.0444827311573005e-14
  outer loop
    vertex 3.5000000000000733 14.50000000000005 2.5000000000000524
    vertex -1.8732634491213427e-13 14.500000000000078 4.499999999999665
    vertex 3.499999999999903 14.500000000000078 4.50000000000006
  endloop
endfacet
facet normal 0.9999908933371724 0.002480548838844018 0.0034727683743815785
  outer loop
    vertex 16.000000000000096 30.000000000000018 5.986877660291152e-14
    vertex 16.000000000000096 26.500000000000004 2.5000000000000777
    vertex 16.000000000000096 26.500000000000004 5.986877660291152e-14
  endloop
endfacet
facet normal 0.9999908933371724 0.002480548838844018 0.0034727683743815785
  outer loop
    vertex 16.000000000000096 26.500000000000004 2.5000000000000777
    vertex 16.000000000000096 30.000000000000018 5.986877660291152e-14
    vertex 15.982636000000094 30.000000000000018 2.5000000000000244
  endloop
endfacet
facet normal 2.685678685890229e-16 -1.0 -1.1270539105251391e-15
  outer loop
    vertex 15.982636000000094 30.000000000000018 2.5000000000000244
    vertex 5.50000000000009 30.000000000000018 5.986877660291152e-14
    vertex 16.000000000000096 30.000000000000018 5.986877660291152e-14
  endloop
endfacet
facet normal 2.685678685890229e-16 -1.0 -1.1270539105251391e-15
  outer loop
    vertex 5.50000000000009 30.000000000000018 5.986877660291152e-14
    vertex 15.982636000000094 30.000000000000018 2.5000000000000244
    vertex 5.50000000000009 30.000000000000014 2.5000000000000226
  endloop
endfacet
facet normal 2.255973186038319e-16 4.12678021836275e-15 -1.0
  outer loop
    vertex 28.50000000000008 30.30000000000002 19.000000000000043
    vertex 3.500000000000098 26.199999999999992 19.000000000000018
    vertex 3.500000000000098 30.30000000000002 19.00000000000004
  endloop
endfacet
facet normal 2.255973186038319e-16 4.12678021836275e-15 -1.0
  outer loop
    vertex 3.500000000000098 26.199999999999992 19.000000000000018
    vertex 28.50000000000008 30.30000000000002 19.000000000000043
    vertex 16.00000000000009 26.199999999999992 19.00000000000002
  endloop
endfacet
facet normal 2.255973186038319e-16 4.12678021836275e-15 -1.0
  outer loop
    vertex 16.00000000000009 26.199999999999992 19.00000000000002
    vertex 28.50000000000008 30.30000000000002 19.000000000000043
    vertex 28.50000000000008 26.199999999999992 19.00000000000003
  endloop
endfacet
facet normal 3.7973397789054266e-30 -1.0 -1.1279865930191563e-14
  outer loop
    vertex 16.00000000000009 26.199999999999992 19.00000000000002
    vertex 3.500000000000098 26.19999999999998 20.00000000000002
    vertex 3.500000000000098 26.199999999999992 19.000000000000018
  endloop
endfacet
facet normal 3.7973397789054266e-30 -1.0 -1.1279865930191563e-14
  outer loop
    vertex 3.500000000000098 26.19999999999998 20.00000000000002
    vertex 16.00000000000009 26.199999999999992 19.00000000000002
    vertex 16.00000000000009 26.19999999999998 20.000000000000025
  endloop
endfacet
facet normal -3.149215533816142e-17 -1.0 -2.5778694572582693e-15
  outer loop
    vertex 28.50000000000008 24.500000000000007 2.500000000000087
    vertex 21.500000000000075 24.499999999999982 12.714983213895161
    vertex 21.500000000000075 24.500000000000007 2.5000000000000777
  endloop
endfacet
facet normal -3.149215533816142e-17 -1.0 -2.5778694572582693e-15
  outer loop
    vertex 21.500000000000075 24.499999999999982 12.714983213895161
    vertex 28.50000000000008 24.500000000000007 2.500000000000087
    vertex 28.50000000000008 24.499999999999964 20.00000000000002
  endloop
endfacet
facet normal -3.149215533816142e-17 -1.0 -2.5778694572582693e-15
  outer loop
    vertex 21.500000000000075 24.499999999999982 12.714983213895161
    vertex 28.50000000000008 24.499999999999964 20.00000000000002
    vertex 21.500000000000075 24.49999999999998 14.502729021461828
  endloop
endfacet
facet normal -3.149215533816142e-17 -1.0 -2.5778694572582693e-15
  outer loop
    vertex 21.500000000000075 24.49999999999998 14.502729021461828
    vertex 28.50000000000008 24.499999999999964 20.00000000000002
    vertex 21.50000000000007 24.499999999999964 20.000000000000018
  endloop
endfacet
facet normal -1.0 0.0 0.0
  outer loop
    vertex 21.500000000000075 26.19999999999998 12.714983213895287
    vertex 21.500000000000075 24.500000000000007 2.5000000000000777
    vertex 21.500000000000075 24.499999999999982 12.714983213895161
  endloop
endfacet
facet normal -1.0 0.0 0.0
  outer loop
    vertex 21.500000000000075 24.500000000000007 2.5000000000000777
    vertex 21.500000000000075 26.19999999999998 12.714983213895287
    vertex 21.500000000000075 26.500000000000004 2.5000000000000777
  endloop
endfacet
facet normal -1.0 0.0 0.0
  outer loop
    vertex 21.500000000000075 26.500000000000004 2.5000000000000777
    vertex 21.500000000000075 26.19999999999998 12.714983213895287
    vertex 21.500000000000075 26.500000000000004 12.71498321389531
  endloop
endfacet
facet normal -0.999994612178313 -0.0031706851887763694 0.000849923395970234
  outer loop
    vertex 21.497537331775824 30.013637034032726 12.710310703122166
    vertex 21.500000000000075 26.500000000000004 2.5000000000000777
    vertex 21.500000000000075 26.500000000000004 12.71498321389531
  endloop
endfacet
facet normal -0.999994612178313 -0.0031706851887763694 0.000849923395970234
  outer loop
    vertex 21.500000000000075 26.500000000000004 2.5000000000000777
    vertex 21.497537331775824 30.013637034032726 12.710310703122166
    vertex 21.480173331775823 30.013637034032737 2.4953274892268746
  endloop
endfacet
facet normal 0.002480560213035763 -0.9999969233968922 -4.216595039710424e-06
  outer loop
    vertex 21.497537331775824 30.013637034032726 12.710310703122166
    vertex 15.982636000000094 30.000000000000018 2.5000000000000244
    vertex 21.480173331775823 30.013637034032737 2.4953274892268746
  endloop
endfacet
facet normal 0.002480560213035763 -0.9999969233968922 -4.216595039710424e-06
  outer loop
    vertex 15.982636000000094 30.000000000000018 2.5000000000000244
    vertex 21.497537331775824 30.013637034032726 12.710310703122166
    vertex 16.000000000000096 30.000000000000007 12.714983213895326
  endloop
endfacet
facet normal 0.00042394601704608256 0.0006697448699395081 0.9999996858557426
  outer loop
    vertex 16.000000000000096 26.500000000000004 2.5000000000000777
    vertex 21.480173331775823 30.013637034032737 2.4953274892268746
    vertex 15.982636000000094 30.000000000000018 2.5000000000000244
  endloop
endfacet
facet normal 0.00042394601704608256 0.0006697448699395081 0.9999996858557426
  outer loop
    vertex 21.480173331775823 30.013637034032737 2.4953274892268746
    vertex 16.000000000000096 26.500000000000004 2.5000000000000777
    vertex 21.500000000000075 26.500000000000004 2.5000000000000777
  endloop
endfacet
facet normal -1.0 6.14672690113973e-29 -1.5773867127040278e-15
  outer loop
    vertex 21.500000000000075 26.199999999999985 14.502729021461834
    vertex 21.500000000000075 24.499999999999982 12.714983213895161
    vertex 21.500000000000075 24.49999999999998 14.502729021461828
  endloop
endfacet
facet normal -1.0 6.14672690113973e-29 -1.5773867127040278e-15
  outer loop
    vertex 21.500000000000075 24.499999999999982 12.714983213895161
    vertex 21.500000000000075 26.199999999999985 14.502729021461834
    vertex 21.500000000000075 26.19999999999998 12.714983213895287
  endloop
endfacet
facet normal 0.0 3.3176076265269226e-15 -1.0
  outer loop
    vertex 21.500000000000075 26.199999999999985 14.502729021461834
    vertex 16.000000000000096 24.49999999999998 14.502729021461828
    vertex 16.000000000000096 26.199999999999985 14.502729021461834
  endloop
endfacet
facet normal 0.0 3.3176076265269226e-15 -1.0
  outer loop
    vertex 16.000000000000096 24.49999999999998 14.502729021461828
    vertex 21.500000000000075 26.199999999999985 14.502729021461834
    vertex 21.500000000000075 24.49999999999998 14.502729021461828
  endloop
endfacet
endsolid задвижка_2
