solid задвижка_1
facet normal -1.0 -1.5412066649686195e-16 -1.6196126122649541e-16
  outer loop
    vertex -14.999999999999995 11.773323780832587 17.49999999999997
    vertex -14.999999999999995 -2.3118099974529294e-15 3.211517049281431e-14
    vertex -14.999999999999995 -2.3118099974529294e-15 17.49999999999997
  endloop
endfacet
facet normal -1.0 -1.5412066649686195e-16 -1.6196126122649541e-16
  outer loop
    vertex -14.999999999999995 -2.3118099974529294e-15 3.211517049281431e-14
    vertex -14.999999999999995 11.773323780832587 17.49999999999997
    vertex -14.999999999999995 11.773323780832587 10.214983213895243
  endloop
endfacet
facet normal -1.0 -1.5412066649686195e-16 -1.6196126122649541e-16
  outer loop
    vertex -14.999999999999995 -2.3118099974529294e-15 3.211517049281431e-14
    vertex -14.999999999999995 11.773323780832587 10.214983213895243
    vertex -14.999999999999995 21.604670999999996 3.211517049281431e-14
  endloop
endfacet
facet normal -1.0 -1.5412066649686195e-16 -1.6196126122649541e-16
  outer loop
    vertex -14.999999999999995 21.604670999999996 3.211517049281431e-14
    vertex -14.999999999999995 11.773323780832587 10.214983213895243
    vertex -15.0 27.104671000000174 10.214983213895183
  endloop
endfacet
facet normal -1.0 -1.5412066649686195e-16 -1.6196126122649541e-16
  outer loop
    vertex -14.999999999999995 21.604670999999996 3.211517049281431e-14
    vertex -15.0 27.104671000000174 10.214983213895183
    vertex -14.999999999999998 25.104671000000042 4.656749871587229e-14
  endloop
endfacet
facet normal -1.0 -1.5412066649686195e-16 -1.6196126122649541e-16
  outer loop
    vertex -14.999999999999998 25.104671000000042 4.656749871587229e-14
    vertex -15.0 27.104671000000174 10.214983213895183
    vertex -14.999999999999993 27.10467100000004 -2.429418918397431e-15
  endloop
endfacet
facet normal 1.0 6.21462094098308e-30 2.7606178331374603e-16
  outer loop
    vertex 16.0 25.10467100000003 0.0
    vertex 15.999999999999998 27.104671000000174 10.214983213895184
    vertex 15.999999999999998 25.104671000000003 10.21498321389528
  endloop
endfacet
facet normal 1.0 6.21462094098308e-30 2.7606178331374603e-16
  outer loop
    vertex 15.999999999999998 27.104671000000174 10.214983213895184
    vertex 16.0 25.10467100000003 0.0
    vertex 16.0 27.10467100000004 0.0
  endloop
endfacet
facet normal -1.5311536760709335e-15 -1.2249229408567383e-14 -1.0
  outer loop
    vertex -14.999999999999993 27.10467100000004 -2.429418918397431e-15
    vertex 16.0 25.10467100000003 0.0
    vertex -14.999999999999998 25.104671000000042 4.656749871587229e-14
  endloop
endfacet
facet normal -1.5311536760709335e-15 -1.2249229408567383e-14 -1.0
  outer loop
    vertex 16.0 25.10467100000003 0.0
    vertex -14.999999999999993 27.10467100000004 -2.429418918397431e-15
    vertex 16.0 27.10467100000004 0.0
  endloop
endfacet
facet normal -9.946476368182053e-31 1.0 -2.0303758674345064e-14
  outer loop
    vertex -15.0 27.104671000000174 10.214983213895183
    vertex 16.0 27.10467100000004 0.0
    vertex -14.999999999999993 27.10467100000004 -2.429418918397431e-15
  endloop
endfacet
facet normal -9.946476368182053e-31 1.0 -2.0303758674345064e-14
  outer loop
    vertex 16.0 27.10467100000004 0.0
    vertex -15.0 27.104671000000174 10.214983213895183
    vertex 15.999999999999998 27.104671000000174 10.214983213895184
  endloop
endfacet
facet normal -1.784510039737342e-15 -3.1944334919800036e-33 -1.0
  outer loop
    vertex 15.999999999999998 21.604671 5.992428775414282e-15
    vertex -14.999999999999995 -2.3118099974529294e-15 3.211517049281431e-14
    vertex -14.999999999999995 21.604670999999996 3.211517049281431e-14
  endloop
endfacet
facet normal -1.784510039737342e-15 -3.1944334919800036e-33 -1.0
  outer loop
    vertex -14.999999999999995 -2.3118099974529294e-15 3.211517049281431e-14
    vertex 15.999999999999998 21.604671 5.992428775414282e-15
    vertex 15.999999999999998 0.0 5.992428775414282e-15
  endloop
endfacet
facet normal -2.4234086959395995e-15 1.2085570639490901e-15 -1.0
  outer loop
    vertex 16.0 25.10467100000003 0.0
    vertex -14.999999999999995 21.604670999999996 3.211517049281431e-14
    vertex -14.999999999999998 25.104671000000042 4.656749871587229e-14
  endloop
endfacet
facet normal -2.4234086959395995e-15 1.2085570639490901e-15 -1.0
  outer loop
    vertex -14.999999999999995 21.604670999999996 3.211517049281431e-14
    vertex 16.0 25.10467100000003 0.0
    vertex 15.999999999999998 21.604671 5.992428775414282e-15
  endloop
endfacet
facet normal 1.0 -0.0 -0.0
  outer loop
    vertex 15.999999999999998 21.604671 5.992428775414282e-15
    vertex 15.999999999999998 0.0 17.499999999999975
    vertex 15.999999999999998 0.0 5.992428775414282e-15
  endloop
endfacet
facet normal 1.0 -0.0 -0.0
  outer loop
    vertex 15.999999999999998 0.0 17.499999999999975
    vertex 15.999999999999998 21.604671 5.992428775414282e-15
    vertex 15.999999999999998 11.77332378083259 10.214983213895245
  endloop
endfacet
facet normal 1.0 -0.0 -0.0
  outer loop
    vertex 15.999999999999998 11.77332378083259 10.214983213895245
    vertex 15.999999999999998 21.604671 5.992428775414282e-15
    vertex 15.999999999999998 21.604671 10.21498321389528
  endloop
endfacet
facet normal 1.0 -0.0 -0.0
  outer loop
    vertex 15.999999999999998 11.77332378083259 17.499999999999975
    vertex 15.999999999999998 0.0 17.499999999999975
    vertex 15.999999999999998 11.77332378083259 10.214983213895245
  endloop
endfacet
facet normal 1.0 -4.0285235464969887e-16 2.0704633748530803e-16
  outer loop
    vertex 16.0 25.10467100000003 0.0
    vertex 15.999999999999998 21.604671 10.21498321389528
    vertex 15.999999999999998 21.604671 5.992428775414282e-15
  endloop
endfacet
facet normal 1.0 -4.0285235464969887e-16 2.0704633748530803e-16
  outer loop
    vertex 15.999999999999998 21.604671 10.21498321389528
    vertex 16.0 25.10467100000003 0.0
    vertex 15.999999999999998 25.104671000000003 10.21498321389528
  endloop
endfacet
facet normal 0.0 -1.0 0.0
  outer loop
    vertex 15.999999999999998 0.0 17.499999999999975
    vertex -14.999999999999995 -2.3118099974529294e-15 3.211517049281431e-14
    vertex 15.999999999999998 0.0 5.992428775414282e-15
  endloop
endfacet
facet normal 0.0 -1.0 0.0
  outer loop
    vertex -14.999999999999995 -2.3118099974529294e-15 3.211517049281431e-14
    vertex 15.999999999999998 0.0 17.499999999999975
    vertex -14.999999999999995 -2.3118099974529294e-15 17.49999999999997
  endloop
endfacet
facet normal -0.0 -0.0 1.0
  outer loop
    vertex 15.999999999999998 0.0 17.499999999999975
    vertex -14.999999999999995 11.773323780832587 17.49999999999997
    vertex -14.999999999999995 -2.3118099974529294e-15 17.49999999999997
  endloop
endfacet
facet normal -0.0 -0.0 1.0
  outer loop
    vertex -14.999999999999995 11.773323780832587 17.49999999999997
    vertex 15.999999999999998 0.0 17.499999999999975
    vertex 15.999999999999998 11.77332378083259 17.499999999999975
  endloop
endfacet
facet normal -3.5249581031848955e-17 1.5504727905176677e-15 1.0
  outer loop
    vertex -14.999999999999995 11.773323780832587 10.214983213895243
    vertex 15.999999999999998 27.104671000000174 10.214983213895184
    vertex -15.0 27.104671000000174 10.214983213895183
  endloop
endfacet
facet normal -3.5249581031848955e-17 1.5504727905176677e-15 1.0
  outer loop
    vertex 15.999999999999998 27.104671000000174 10.214983213895184
    vertex -14.999999999999995 11.773323780832587 10.214983213895243
    vertex 15.999999999999998 11.77332378083259 10.214983213895245
  endloop
endfacet
facet normal -3.5249581031848955e-17 1.5504727905176677e-15 1.0
  outer loop
    vertex 15.999999999999998 27.104671000000174 10.214983213895184
    vertex 15.999999999999998 11.77332378083259 10.214983213895245
    vertex 15.999999999999998 21.604671 10.21498321389528
  endloop
endfacet
facet normal -3.5249581031848955e-17 1.5504727905176677e-15 1.0
  outer loop
    vertex 15.999999999999998 27.104671000000174 10.214983213895184
    vertex 15.999999999999998 21.604671 10.21498321389528
    vertex 15.999999999999998 25.104671000000003 10.21498321389528
  endloop
endfacet
facet normal 8.812395257962183e-17 1.0 0.0
  outer loop
    vertex -14.999999999999995 11.773323780832587 17.49999999999997
    vertex 15.999999999999998 11.77332378083259 10.214983213895245
    vertex -14.999999999999995 11.773323780832587 10.214983213895243
  endloop
endfacet
facet normal 8.812395257962183e-17 1.0 0.0
  outer loop
    vertex 15.999999999999998 11.77332378083259 10.214983213895245
    vertex -14.999999999999995 11.773323780832587 17.49999999999997
    vertex 15.999999999999998 11.77332378083259 17.499999999999975
  endloop
endfacet
endsolid задвижка_1
